<?xml version="1.0" encoding="utf-8" standalone="no"?>
<!DOCTYPE svg PUBLIC "-//W3C//DTD SVG 1.1//EN"
  "http://www.w3.org/Graphics/SVG/1.1/DTD/svg11.dtd">
<!-- Created with matplotlib (https://matplotlib.org/) -->
<svg height="315pt" version="1.1" viewBox="0 0 220 315" width="220pt" xmlns="http://www.w3.org/2000/svg" xmlns:xlink="http://www.w3.org/1999/xlink">
 <defs>
  <style type="text/css">
*{stroke-linecap:butt;stroke-linejoin:round;}
  </style>
 </defs>
 <g id="figure_1">
  <g id="patch_1">
   <path d="M 0 315 
L 220 315 
L 220 0 
L 0 0 
z
" style="fill:#ffffff;"/>
  </g>
  <g id="axes_1">
   <g id="patch_2">
    <path d="M 40.065625 287.521875 
L 205.7 287.521875 
L 205.7 14.3 
L 40.065625 14.3 
z
" style="fill:#ffffff;"/>
   </g>
   <g id="matplotlib.axis_1">
    <g id="xtick_1">
     <g id="line2d_1">
      <defs>
       <path d="M 0 0 
L 0 3.5 
" id="m478aa146a4" style="stroke:#000000;stroke-width:0.8;"/>
      </defs>
      <g>
       <use style="stroke:#000000;stroke-width:0.8;" x="40.065625" xlink:href="#m478aa146a4" y="287.521875"/>
      </g>
     </g>
     <g id="text_1">
      <!-- 0 -->
      <defs>
       <path d="M 31.78125 66.40625 
Q 24.171875 66.40625 20.328125 58.90625 
Q 16.5 51.421875 16.5 36.375 
Q 16.5 21.390625 20.328125 13.890625 
Q 24.171875 6.390625 31.78125 6.390625 
Q 39.453125 6.390625 43.28125 13.890625 
Q 47.125 21.390625 47.125 36.375 
Q 47.125 51.421875 43.28125 58.90625 
Q 39.453125 66.40625 31.78125 66.40625 
z
M 31.78125 74.21875 
Q 44.046875 74.21875 50.515625 64.515625 
Q 56.984375 54.828125 56.984375 36.375 
Q 56.984375 17.96875 50.515625 8.265625 
Q 44.046875 -1.421875 31.78125 -1.421875 
Q 19.53125 -1.421875 13.0625 8.265625 
Q 6.59375 17.96875 6.59375 36.375 
Q 6.59375 54.828125 13.0625 64.515625 
Q 19.53125 74.21875 31.78125 74.21875 
z
" id="DejaVuSans-48"/>
      </defs>
      <g transform="translate(36.884375 302.120313)scale(0.1 -0.1)">
       <use xlink:href="#DejaVuSans-48"/>
      </g>
     </g>
    </g>
    <g id="xtick_2">
     <g id="line2d_2">
      <g>
       <use style="stroke:#000000;stroke-width:0.8;" x="73.527115" xlink:href="#m478aa146a4" y="287.521875"/>
      </g>
     </g>
     <g id="text_2">
      <!-- 20 -->
      <defs>
       <path d="M 19.1875 8.296875 
L 53.609375 8.296875 
L 53.609375 0 
L 7.328125 0 
L 7.328125 8.296875 
Q 12.9375 14.109375 22.625 23.890625 
Q 32.328125 33.6875 34.8125 36.53125 
Q 39.546875 41.84375 41.421875 45.53125 
Q 43.3125 49.21875 43.3125 52.78125 
Q 43.3125 58.59375 39.234375 62.25 
Q 35.15625 65.921875 28.609375 65.921875 
Q 23.96875 65.921875 18.8125 64.3125 
Q 13.671875 62.703125 7.8125 59.421875 
L 7.8125 69.390625 
Q 13.765625 71.78125 18.9375 73 
Q 24.125 74.21875 28.421875 74.21875 
Q 39.75 74.21875 46.484375 68.546875 
Q 53.21875 62.890625 53.21875 53.421875 
Q 53.21875 48.921875 51.53125 44.890625 
Q 49.859375 40.875 45.40625 35.40625 
Q 44.1875 33.984375 37.640625 27.21875 
Q 31.109375 20.453125 19.1875 8.296875 
z
" id="DejaVuSans-50"/>
      </defs>
      <g transform="translate(67.164615 302.120313)scale(0.1 -0.1)">
       <use xlink:href="#DejaVuSans-50"/>
       <use x="63.623047" xlink:href="#DejaVuSans-48"/>
      </g>
     </g>
    </g>
    <g id="xtick_3">
     <g id="line2d_3">
      <g>
       <use style="stroke:#000000;stroke-width:0.8;" x="106.988605" xlink:href="#m478aa146a4" y="287.521875"/>
      </g>
     </g>
     <g id="text_3">
      <!-- 40 -->
      <defs>
       <path d="M 37.796875 64.3125 
L 12.890625 25.390625 
L 37.796875 25.390625 
z
M 35.203125 72.90625 
L 47.609375 72.90625 
L 47.609375 25.390625 
L 58.015625 25.390625 
L 58.015625 17.1875 
L 47.609375 17.1875 
L 47.609375 0 
L 37.796875 0 
L 37.796875 17.1875 
L 4.890625 17.1875 
L 4.890625 26.703125 
z
" id="DejaVuSans-52"/>
      </defs>
      <g transform="translate(100.626105 302.120313)scale(0.1 -0.1)">
       <use xlink:href="#DejaVuSans-52"/>
       <use x="63.623047" xlink:href="#DejaVuSans-48"/>
      </g>
     </g>
    </g>
    <g id="xtick_4">
     <g id="line2d_4">
      <g>
       <use style="stroke:#000000;stroke-width:0.8;" x="140.450095" xlink:href="#m478aa146a4" y="287.521875"/>
      </g>
     </g>
     <g id="text_4">
      <!-- 60 -->
      <defs>
       <path d="M 33.015625 40.375 
Q 26.375 40.375 22.484375 35.828125 
Q 18.609375 31.296875 18.609375 23.390625 
Q 18.609375 15.53125 22.484375 10.953125 
Q 26.375 6.390625 33.015625 6.390625 
Q 39.65625 6.390625 43.53125 10.953125 
Q 47.40625 15.53125 47.40625 23.390625 
Q 47.40625 31.296875 43.53125 35.828125 
Q 39.65625 40.375 33.015625 40.375 
z
M 52.59375 71.296875 
L 52.59375 62.3125 
Q 48.875 64.0625 45.09375 64.984375 
Q 41.3125 65.921875 37.59375 65.921875 
Q 27.828125 65.921875 22.671875 59.328125 
Q 17.53125 52.734375 16.796875 39.40625 
Q 19.671875 43.65625 24.015625 45.921875 
Q 28.375 48.1875 33.59375 48.1875 
Q 44.578125 48.1875 50.953125 41.515625 
Q 57.328125 34.859375 57.328125 23.390625 
Q 57.328125 12.15625 50.6875 5.359375 
Q 44.046875 -1.421875 33.015625 -1.421875 
Q 20.359375 -1.421875 13.671875 8.265625 
Q 6.984375 17.96875 6.984375 36.375 
Q 6.984375 53.65625 15.1875 63.9375 
Q 23.390625 74.21875 37.203125 74.21875 
Q 40.921875 74.21875 44.703125 73.484375 
Q 48.484375 72.75 52.59375 71.296875 
z
" id="DejaVuSans-54"/>
      </defs>
      <g transform="translate(134.087595 302.120313)scale(0.1 -0.1)">
       <use xlink:href="#DejaVuSans-54"/>
       <use x="63.623047" xlink:href="#DejaVuSans-48"/>
      </g>
     </g>
    </g>
    <g id="xtick_5">
     <g id="line2d_5">
      <g>
       <use style="stroke:#000000;stroke-width:0.8;" x="173.911585" xlink:href="#m478aa146a4" y="287.521875"/>
      </g>
     </g>
     <g id="text_5">
      <!-- 80 -->
      <defs>
       <path d="M 31.78125 34.625 
Q 24.75 34.625 20.71875 30.859375 
Q 16.703125 27.09375 16.703125 20.515625 
Q 16.703125 13.921875 20.71875 10.15625 
Q 24.75 6.390625 31.78125 6.390625 
Q 38.8125 6.390625 42.859375 10.171875 
Q 46.921875 13.96875 46.921875 20.515625 
Q 46.921875 27.09375 42.890625 30.859375 
Q 38.875 34.625 31.78125 34.625 
z
M 21.921875 38.8125 
Q 15.578125 40.375 12.03125 44.71875 
Q 8.5 49.078125 8.5 55.328125 
Q 8.5 64.0625 14.71875 69.140625 
Q 20.953125 74.21875 31.78125 74.21875 
Q 42.671875 74.21875 48.875 69.140625 
Q 55.078125 64.0625 55.078125 55.328125 
Q 55.078125 49.078125 51.53125 44.71875 
Q 48 40.375 41.703125 38.8125 
Q 48.828125 37.15625 52.796875 32.3125 
Q 56.78125 27.484375 56.78125 20.515625 
Q 56.78125 9.90625 50.3125 4.234375 
Q 43.84375 -1.421875 31.78125 -1.421875 
Q 19.734375 -1.421875 13.25 4.234375 
Q 6.78125 9.90625 6.78125 20.515625 
Q 6.78125 27.484375 10.78125 32.3125 
Q 14.796875 37.15625 21.921875 38.8125 
z
M 18.3125 54.390625 
Q 18.3125 48.734375 21.84375 45.5625 
Q 25.390625 42.390625 31.78125 42.390625 
Q 38.140625 42.390625 41.71875 45.5625 
Q 45.3125 48.734375 45.3125 54.390625 
Q 45.3125 60.0625 41.71875 63.234375 
Q 38.140625 66.40625 31.78125 66.40625 
Q 25.390625 66.40625 21.84375 63.234375 
Q 18.3125 60.0625 18.3125 54.390625 
z
" id="DejaVuSans-56"/>
      </defs>
      <g transform="translate(167.549085 302.120313)scale(0.1 -0.1)">
       <use xlink:href="#DejaVuSans-56"/>
       <use x="63.623047" xlink:href="#DejaVuSans-48"/>
      </g>
     </g>
    </g>
   </g>
   <g id="matplotlib.axis_2">
    <g id="ytick_1">
     <g id="line2d_6">
      <defs>
       <path d="M 0 0 
L -3.5 0 
" id="md337fd16df" style="stroke:#000000;stroke-width:0.8;"/>
      </defs>
      <g>
       <use style="stroke:#000000;stroke-width:0.8;" x="40.065625" xlink:href="#md337fd16df" y="274.733072"/>
      </g>
     </g>
     <g id="text_6">
      <!-- 0.20 -->
      <defs>
       <path d="M 10.6875 12.40625 
L 21 12.40625 
L 21 0 
L 10.6875 0 
z
" id="DejaVuSans-46"/>
      </defs>
      <g transform="translate(10.8 278.53229)scale(0.1 -0.1)">
       <use xlink:href="#DejaVuSans-48"/>
       <use x="63.623047" xlink:href="#DejaVuSans-46"/>
       <use x="95.410156" xlink:href="#DejaVuSans-50"/>
       <use x="159.033203" xlink:href="#DejaVuSans-48"/>
      </g>
     </g>
    </g>
    <g id="ytick_2">
     <g id="line2d_7">
      <g>
       <use style="stroke:#000000;stroke-width:0.8;" x="40.065625" xlink:href="#md337fd16df" y="237.658083"/>
      </g>
     </g>
     <g id="text_7">
      <!-- 0.25 -->
      <defs>
       <path d="M 10.796875 72.90625 
L 49.515625 72.90625 
L 49.515625 64.59375 
L 19.828125 64.59375 
L 19.828125 46.734375 
Q 21.96875 47.46875 24.109375 47.828125 
Q 26.265625 48.1875 28.421875 48.1875 
Q 40.625 48.1875 47.75 41.5 
Q 54.890625 34.8125 54.890625 23.390625 
Q 54.890625 11.625 47.5625 5.09375 
Q 40.234375 -1.421875 26.90625 -1.421875 
Q 22.3125 -1.421875 17.546875 -0.640625 
Q 12.796875 0.140625 7.71875 1.703125 
L 7.71875 11.625 
Q 12.109375 9.234375 16.796875 8.0625 
Q 21.484375 6.890625 26.703125 6.890625 
Q 35.15625 6.890625 40.078125 11.328125 
Q 45.015625 15.765625 45.015625 23.390625 
Q 45.015625 31 40.078125 35.4375 
Q 35.15625 39.890625 26.703125 39.890625 
Q 22.75 39.890625 18.8125 39.015625 
Q 14.890625 38.140625 10.796875 36.28125 
z
" id="DejaVuSans-53"/>
      </defs>
      <g transform="translate(10.8 241.457302)scale(0.1 -0.1)">
       <use xlink:href="#DejaVuSans-48"/>
       <use x="63.623047" xlink:href="#DejaVuSans-46"/>
       <use x="95.410156" xlink:href="#DejaVuSans-50"/>
       <use x="159.033203" xlink:href="#DejaVuSans-53"/>
      </g>
     </g>
    </g>
    <g id="ytick_3">
     <g id="line2d_8">
      <g>
       <use style="stroke:#000000;stroke-width:0.8;" x="40.065625" xlink:href="#md337fd16df" y="200.583094"/>
      </g>
     </g>
     <g id="text_8">
      <!-- 0.30 -->
      <defs>
       <path d="M 40.578125 39.3125 
Q 47.65625 37.796875 51.625 33 
Q 55.609375 28.21875 55.609375 21.1875 
Q 55.609375 10.40625 48.1875 4.484375 
Q 40.765625 -1.421875 27.09375 -1.421875 
Q 22.515625 -1.421875 17.65625 -0.515625 
Q 12.796875 0.390625 7.625 2.203125 
L 7.625 11.71875 
Q 11.71875 9.328125 16.59375 8.109375 
Q 21.484375 6.890625 26.8125 6.890625 
Q 36.078125 6.890625 40.9375 10.546875 
Q 45.796875 14.203125 45.796875 21.1875 
Q 45.796875 27.640625 41.28125 31.265625 
Q 36.765625 34.90625 28.71875 34.90625 
L 20.21875 34.90625 
L 20.21875 43.015625 
L 29.109375 43.015625 
Q 36.375 43.015625 40.234375 45.921875 
Q 44.09375 48.828125 44.09375 54.296875 
Q 44.09375 59.90625 40.109375 62.90625 
Q 36.140625 65.921875 28.71875 65.921875 
Q 24.65625 65.921875 20.015625 65.03125 
Q 15.375 64.15625 9.8125 62.3125 
L 9.8125 71.09375 
Q 15.4375 72.65625 20.34375 73.4375 
Q 25.25 74.21875 29.59375 74.21875 
Q 40.828125 74.21875 47.359375 69.109375 
Q 53.90625 64.015625 53.90625 55.328125 
Q 53.90625 49.265625 50.4375 45.09375 
Q 46.96875 40.921875 40.578125 39.3125 
z
" id="DejaVuSans-51"/>
      </defs>
      <g transform="translate(10.8 204.382313)scale(0.1 -0.1)">
       <use xlink:href="#DejaVuSans-48"/>
       <use x="63.623047" xlink:href="#DejaVuSans-46"/>
       <use x="95.410156" xlink:href="#DejaVuSans-51"/>
       <use x="159.033203" xlink:href="#DejaVuSans-48"/>
      </g>
     </g>
    </g>
    <g id="ytick_4">
     <g id="line2d_9">
      <g>
       <use style="stroke:#000000;stroke-width:0.8;" x="40.065625" xlink:href="#md337fd16df" y="163.508106"/>
      </g>
     </g>
     <g id="text_9">
      <!-- 0.35 -->
      <g transform="translate(10.8 167.307324)scale(0.1 -0.1)">
       <use xlink:href="#DejaVuSans-48"/>
       <use x="63.623047" xlink:href="#DejaVuSans-46"/>
       <use x="95.410156" xlink:href="#DejaVuSans-51"/>
       <use x="159.033203" xlink:href="#DejaVuSans-53"/>
      </g>
     </g>
    </g>
    <g id="ytick_5">
     <g id="line2d_10">
      <g>
       <use style="stroke:#000000;stroke-width:0.8;" x="40.065625" xlink:href="#md337fd16df" y="126.433117"/>
      </g>
     </g>
     <g id="text_10">
      <!-- 0.40 -->
      <g transform="translate(10.8 130.232336)scale(0.1 -0.1)">
       <use xlink:href="#DejaVuSans-48"/>
       <use x="63.623047" xlink:href="#DejaVuSans-46"/>
       <use x="95.410156" xlink:href="#DejaVuSans-52"/>
       <use x="159.033203" xlink:href="#DejaVuSans-48"/>
      </g>
     </g>
    </g>
    <g id="ytick_6">
     <g id="line2d_11">
      <g>
       <use style="stroke:#000000;stroke-width:0.8;" x="40.065625" xlink:href="#md337fd16df" y="89.358128"/>
      </g>
     </g>
     <g id="text_11">
      <!-- 0.45 -->
      <g transform="translate(10.8 93.157347)scale(0.1 -0.1)">
       <use xlink:href="#DejaVuSans-48"/>
       <use x="63.623047" xlink:href="#DejaVuSans-46"/>
       <use x="95.410156" xlink:href="#DejaVuSans-52"/>
       <use x="159.033203" xlink:href="#DejaVuSans-53"/>
      </g>
     </g>
    </g>
    <g id="ytick_7">
     <g id="line2d_12">
      <g>
       <use style="stroke:#000000;stroke-width:0.8;" x="40.065625" xlink:href="#md337fd16df" y="52.28314"/>
      </g>
     </g>
     <g id="text_12">
      <!-- 0.50 -->
      <g transform="translate(10.8 56.082358)scale(0.1 -0.1)">
       <use xlink:href="#DejaVuSans-48"/>
       <use x="63.623047" xlink:href="#DejaVuSans-46"/>
       <use x="95.410156" xlink:href="#DejaVuSans-53"/>
       <use x="159.033203" xlink:href="#DejaVuSans-48"/>
      </g>
     </g>
    </g>
    <g id="ytick_8">
     <g id="line2d_13">
      <g>
       <use style="stroke:#000000;stroke-width:0.8;" x="40.065625" xlink:href="#md337fd16df" y="15.208151"/>
      </g>
     </g>
     <g id="text_13">
      <!-- 0.55 -->
      <g transform="translate(10.8 19.00737)scale(0.1 -0.1)">
       <use xlink:href="#DejaVuSans-48"/>
       <use x="63.623047" xlink:href="#DejaVuSans-46"/>
       <use x="95.410156" xlink:href="#DejaVuSans-53"/>
       <use x="159.033203" xlink:href="#DejaVuSans-53"/>
      </g>
     </g>
    </g>
   </g>
   <g id="line2d_14">
    <path clip-path="url(#p805dd65c68)" d="M 40.065625 87.645779 
L 41.738699 149.356482 
L 43.411774 180.613085 
L 45.084848 195.708709 
L 46.757923 207.595125 
L 48.430997 215.959447 
L 50.104072 222.297993 
L 51.777146 225.509755 
L 53.450221 232.726343 
L 55.123295 237.015849 
L 56.79637 239.982891 
L 58.469444 243.962892 
L 60.142519 246.513169 
L 61.815593 248.173304 
L 63.488668 251.317462 
L 65.161742 248.90198 
L 66.834817 253.565426 
L 68.507891 254.957099 
L 70.180966 256.277847 
L 71.85404 256.938695 
L 73.527115 257.072552 
L 75.200189 258.679513 
L 76.873264 256.450639 
L 78.546338 259.978556 
L 80.219413 260.071163 
L 81.892487 259.409063 
L 83.565562 261.873503 
L 85.238636 258.274712 
L 86.911711 261.309051 
L 88.584785 259.802741 
L 90.25786 258.81792 
L 91.930934 261.815168 
L 93.604009 259.234311 
L 95.277083 260.453429 
L 96.950158 263.63916 
L 98.623232 262.807684 
L 100.296307 261.377798 
L 101.969381 260.673073 
L 103.642456 262.370133 
L 105.31553 260.394198 
L 106.988605 263.806695 
L 108.661679 256.886465 
L 110.334754 260.552271 
L 112.007828 262.29937 
L 113.680903 262.976253 
L 115.353977 262.040012 
L 117.027052 263.118426 
L 118.700126 262.087244 
L 120.373201 261.364348 
L 122.046275 262.838399 
L 123.71935 260.737838 
L 125.392424 256.657753 
L 127.065499 262.442703 
L 128.738573 262.579398 
L 130.411648 262.645952 
L 132.084722 262.804275 
L 133.757797 262.899918 
L 135.430871 262.252103 
L 137.103946 259.993676 
L 138.77702 261.541023 
L 140.450095 261.191244 
L 142.123169 262.378079 
L 143.796244 254.73004 
L 145.469318 259.790735 
L 147.142393 260.088149 
L 148.815467 260.121457 
L 150.488542 255.669521 
L 152.161616 261.125293 
L 153.834691 260.29747 
L 155.507765 260.760165 
L 157.18084 259.273449 
L 158.853914 256.156257 
L 160.526989 260.156049 
L 162.200063 257.0274 
L 163.873138 257.953017 
L 165.546212 256.20369 
L 167.219287 258.677777 
L 168.892361 257.531281 
L 170.565436 255.933405 
L 172.23851 257.206717 
L 173.911585 253.978206 
L 175.584659 253.359231 
L 177.257734 256.18051 
L 178.930808 255.708125 
L 180.603883 251.965421 
L 182.276957 255.068256 
L 183.950032 250.777614 
L 185.623106 251.672619 
L 187.296181 249.313142 
L 188.969255 255.437908 
L 190.64233 252.973011 
L 192.315404 252.772089 
L 193.988479 252.064916 
L 195.661553 251.44693 
L 197.334628 251.518025 
L 199.007702 249.860157 
L 200.680777 248.207755 
L 202.353851 249.861233 
L 204.026926 251.281321 
L 205.7 248.551374 
" style="fill:none;stroke:#1f77b4;stroke-linecap:square;stroke-width:1.5;"/>
   </g>
   <g id="line2d_15">
    <path clip-path="url(#p805dd65c68)" d="M 40.065625 26.719176 
L 41.738699 66.925294 
L 43.411774 99.442209 
L 45.084848 125.20717 
L 46.757923 143.456653 
L 48.430997 158.7477 
L 50.104072 171.072339 
L 51.777146 179.898291 
L 53.450221 187.923938 
L 55.123295 194.451495 
L 56.79637 199.64748 
L 58.469444 203.982521 
L 60.142519 209.175326 
L 61.815593 214.00632 
L 63.488668 217.895751 
L 65.161742 220.492966 
L 66.834817 224.832297 
L 68.507891 228.071437 
L 70.180966 231.006185 
L 71.85404 233.069072 
L 73.527115 236.571968 
L 75.200189 239.296199 
L 76.873264 240.414903 
L 78.546338 243.873009 
L 80.219413 245.905427 
L 81.892487 247.895934 
L 83.565562 249.620335 
L 85.238636 250.922106 
L 86.911711 252.940338 
L 88.584785 255.104365 
L 90.25786 256.377256 
L 91.930934 257.604506 
L 93.604009 258.280193 
L 95.277083 259.929692 
L 96.950158 259.892878 
L 98.623232 262.261191 
L 100.296307 262.012874 
L 101.969381 263.802834 
L 103.642456 264.917938 
L 105.31553 265.497465 
L 106.988605 266.046423 
L 108.661679 266.218179 
L 110.334754 267.611386 
L 112.007828 268.338402 
L 113.680903 267.438905 
L 115.353977 268.272158 
L 117.027052 269.265134 
L 118.700126 270.245511 
L 120.373201 270.670034 
L 122.046275 268.755414 
L 123.71935 271.006799 
L 125.392424 271.183342 
L 127.065499 271.640369 
L 128.738573 271.664004 
L 130.411648 271.410357 
L 132.084722 271.919699 
L 133.757797 272.352528 
L 135.430871 272.51552 
L 137.103946 273.312967 
L 138.77702 272.09151 
L 140.450095 272.296741 
L 142.123169 273.212088 
L 143.796244 272.338178 
L 145.469318 271.224841 
L 147.142393 271.981588 
L 148.815467 272.980248 
L 150.488542 273.155695 
L 152.161616 273.490382 
L 153.834691 273.601854 
L 155.507765 274.032121 
L 157.18084 274.127609 
L 158.853914 272.0001 
L 160.526989 274.85998 
L 162.200063 274.687646 
L 163.873138 274.277967 
L 165.546212 274.222688 
L 167.219287 274.788285 
L 168.892361 275.102699 
L 170.565436 273.743177 
L 172.23851 274.619214 
L 173.911585 273.841607 
L 175.584659 274.656358 
L 177.257734 273.164032 
L 178.930808 274.572464 
L 180.603883 273.820231 
L 182.276957 274.305111 
L 183.950032 274.63141 
L 185.623106 273.613184 
L 187.296181 274.652498 
L 188.969255 274.633202 
L 190.64233 274.194382 
L 192.315404 273.325666 
L 193.988479 274.664136 
L 195.661553 272.622211 
L 197.334628 274.065068 
L 199.007702 274.896553 
L 200.680777 273.580238 
L 202.353851 273.857365 
L 204.026926 274.341376 
L 205.7 274.14025 
" style="fill:none;stroke:#ff7f0e;stroke-linecap:square;stroke-width:1.5;"/>
   </g>
   <g id="line2d_16">
    <path clip-path="url(#p805dd65c68)" d="M 40.065625 53.175588 
L 41.738699 114.441215 
L 43.411774 148.556239 
L 45.084848 169.985492 
L 46.757923 183.691187 
L 48.430997 193.717308 
L 50.104072 199.329098 
L 51.777146 206.563774 
L 53.450221 211.123465 
L 55.123295 214.371475 
L 56.79637 218.823051 
L 58.469444 219.19407 
L 60.142519 226.198764 
L 61.815593 229.027475 
L 63.488668 232.218608 
L 65.161742 234.32628 
L 66.834817 237.524781 
L 68.507891 239.348523 
L 70.180966 241.229568 
L 71.85404 243.751333 
L 73.527115 245.088222 
L 75.200189 247.999173 
L 76.873264 250.148027 
L 78.546338 251.702044 
L 80.219413 252.670847 
L 81.892487 255.460923 
L 83.565562 256.411418 
L 85.238636 257.310946 
L 86.911711 258.468555 
L 88.584785 257.522094 
L 90.25786 259.461425 
L 91.930934 260.665034 
L 93.604009 261.646559 
L 95.277083 259.852972 
L 96.950158 262.792893 
L 98.623232 262.677935 
L 100.296307 264.165016 
L 101.969381 263.263647 
L 103.642456 264.450959 
L 105.31553 263.885485 
L 106.988605 264.87059 
L 108.661679 266.009509 
L 110.334754 265.52504 
L 112.007828 266.124655 
L 113.680903 265.955434 
L 115.353977 264.133723 
L 117.027052 265.96672 
L 118.700126 265.26088 
L 120.373201 264.769612 
L 122.046275 265.890746 
L 123.71935 264.489574 
L 125.392424 264.346533 
L 127.065499 264.03318 
L 128.738573 266.219324 
L 130.411648 264.279094 
L 132.084722 265.342064 
L 133.757797 262.845761 
L 135.430871 264.707057 
L 137.103946 264.052904 
L 138.77702 264.989522 
L 140.450095 264.841348 
L 142.123169 263.639625 
L 143.796244 262.929425 
L 145.469318 261.552176 
L 147.142393 263.677013 
L 148.815467 260.876962 
L 150.488542 263.201988 
L 152.161616 261.456441 
L 153.834691 264.343663 
L 155.507765 262.015757 
L 157.18084 262.584925 
L 158.853914 261.764349 
L 160.526989 261.807506 
L 162.200063 260.395739 
L 163.873138 260.079267 
L 165.546212 257.847661 
L 167.219287 260.608342 
L 168.892361 258.573985 
L 170.565436 257.941531 
L 172.23851 258.518594 
L 173.911585 257.691969 
L 175.584659 258.157047 
L 177.257734 257.772504 
L 178.930808 256.676495 
L 180.603883 255.606079 
L 182.276957 255.685991 
L 183.950032 254.977367 
L 185.623106 256.291646 
L 187.296181 255.998204 
L 188.969255 254.25679 
L 190.64233 255.144305 
L 192.315404 254.013173 
L 193.988479 253.077972 
L 195.661553 251.226941 
L 197.334628 252.991695 
L 199.007702 252.226786 
L 200.680777 251.901446 
L 202.353851 250.248316 
L 204.026926 250.127766 
L 205.7 247.954414 
" style="fill:none;stroke:#2ca02c;stroke-linecap:square;stroke-width:1.5;"/>
   </g>
   <g id="line2d_17">
    <path clip-path="url(#p805dd65c68)" d="M 40.065625 65.453347 
L 41.738699 133.310431 
L 43.411774 164.577649 
L 45.084848 182.646893 
L 46.757923 194.71019 
L 48.430997 199.488323 
L 50.104072 208.185387 
L 51.777146 207.910506 
L 53.450221 220.727289 
L 55.123295 211.361358 
L 56.79637 227.648415 
L 58.469444 231.432018 
L 60.142519 228.897892 
L 61.815593 239.974165 
L 63.488668 243.081648 
L 65.161742 245.969723 
L 66.834817 242.975254 
L 68.507891 249.651811 
L 70.180966 252.364067 
L 71.85404 254.345328 
L 73.527115 255.783701 
L 75.200189 252.90706 
L 76.873264 254.576556 
L 78.546338 255.658225 
L 80.219413 258.900562 
L 81.892487 259.25121 
L 83.565562 258.300369 
L 85.238636 259.90585 
L 86.911711 259.883674 
L 88.584785 259.844529 
L 90.25786 262.15507 
L 91.930934 260.956202 
L 93.604009 263.656752 
L 95.277083 257.668854 
L 96.950158 260.683769 
L 98.623232 263.560852 
L 100.296307 263.843293 
L 101.969381 264.159619 
L 103.642456 261.584983 
L 105.31553 259.748574 
L 106.988605 263.316103 
L 108.661679 264.302004 
L 110.334754 264.002617 
L 112.007828 259.634237 
L 113.680903 263.286076 
L 115.353977 263.213436 
L 117.027052 263.023988 
L 118.700126 265.067825 
L 120.373201 264.583146 
L 122.046275 259.768292 
L 123.71935 261.786415 
L 125.392424 263.775214 
L 127.065499 262.844824 
L 128.738573 263.480828 
L 130.411648 261.768368 
L 132.084722 260.279811 
L 133.757797 262.988936 
L 135.430871 261.03931 
L 137.103946 260.879552 
L 138.77702 261.830813 
L 140.450095 261.271933 
L 142.123169 262.933949 
L 143.796244 262.579285 
L 145.469318 261.352229 
L 147.142393 259.967511 
L 148.815467 263.107615 
L 150.488542 260.692158 
L 152.161616 260.642637 
L 153.834691 259.424802 
L 155.507765 258.317643 
L 157.18084 261.18417 
L 158.853914 260.12914 
L 160.526989 258.471634 
L 162.200063 260.181636 
L 163.873138 257.725877 
L 165.546212 256.621808 
L 167.219287 258.352976 
L 168.892361 257.257629 
L 170.565436 258.827168 
L 172.23851 256.874799 
L 173.911585 253.275383 
L 175.584659 258.149502 
L 177.257734 257.713254 
L 178.930808 257.659117 
L 180.603883 256.123973 
L 182.276957 256.730197 
L 183.950032 254.108376 
L 185.623106 253.767988 
L 187.296181 255.149655 
L 188.969255 253.900186 
L 190.64233 254.03421 
L 192.315404 253.393185 
L 193.988479 253.749326 
L 195.661553 252.633372 
L 197.334628 253.18916 
L 199.007702 253.055155 
L 200.680777 254.014911 
L 202.353851 250.414857 
L 204.026926 250.925109 
L 205.7 248.560579 
" style="fill:none;stroke:#d62728;stroke-linecap:square;stroke-width:1.5;"/>
   </g>
   <g id="patch_3">
    <path d="M 40.065625 287.521875 
L 40.065625 14.3 
" style="fill:none;stroke:#000000;stroke-linecap:square;stroke-linejoin:miter;stroke-width:0.8;"/>
   </g>
   <g id="patch_4">
    <path d="M 205.7 287.521875 
L 205.7 14.3 
" style="fill:none;stroke:#000000;stroke-linecap:square;stroke-linejoin:miter;stroke-width:0.8;"/>
   </g>
   <g id="patch_5">
    <path d="M 40.065625 287.521875 
L 205.7 287.521875 
" style="fill:none;stroke:#000000;stroke-linecap:square;stroke-linejoin:miter;stroke-width:0.8;"/>
   </g>
   <g id="patch_6">
    <path d="M 40.065625 14.3 
L 205.7 14.3 
" style="fill:none;stroke:#000000;stroke-linecap:square;stroke-linejoin:miter;stroke-width:0.8;"/>
   </g>
   <g id="legend_1">
    <g id="patch_7">
     <path d="M 115.559375 81.290625 
L 198.7 81.290625 
Q 200.7 81.290625 200.7 79.290625 
L 200.7 21.3 
Q 200.7 19.3 198.7 19.3 
L 115.559375 19.3 
Q 113.559375 19.3 113.559375 21.3 
L 113.559375 79.290625 
Q 113.559375 81.290625 115.559375 81.290625 
z
" style="fill:#ffffff;opacity:0.8;stroke:#cccccc;stroke-linejoin:miter;"/>
    </g>
    <g id="line2d_18">
     <path d="M 117.559375 27.398437 
L 137.559375 27.398437 
" style="fill:none;stroke:#1f77b4;stroke-linecap:square;stroke-width:1.5;"/>
    </g>
    <g id="line2d_19"/>
    <g id="text_14">
     <!-- relu -->
     <defs>
      <path d="M 41.109375 46.296875 
Q 39.59375 47.171875 37.8125 47.578125 
Q 36.03125 48 33.890625 48 
Q 26.265625 48 22.1875 43.046875 
Q 18.109375 38.09375 18.109375 28.8125 
L 18.109375 0 
L 9.078125 0 
L 9.078125 54.6875 
L 18.109375 54.6875 
L 18.109375 46.1875 
Q 20.953125 51.171875 25.484375 53.578125 
Q 30.03125 56 36.53125 56 
Q 37.453125 56 38.578125 55.875 
Q 39.703125 55.765625 41.0625 55.515625 
z
" id="DejaVuSans-114"/>
      <path d="M 56.203125 29.59375 
L 56.203125 25.203125 
L 14.890625 25.203125 
Q 15.484375 15.921875 20.484375 11.0625 
Q 25.484375 6.203125 34.421875 6.203125 
Q 39.59375 6.203125 44.453125 7.46875 
Q 49.3125 8.734375 54.109375 11.28125 
L 54.109375 2.78125 
Q 49.265625 0.734375 44.1875 -0.34375 
Q 39.109375 -1.421875 33.890625 -1.421875 
Q 20.796875 -1.421875 13.15625 6.1875 
Q 5.515625 13.8125 5.515625 26.8125 
Q 5.515625 40.234375 12.765625 48.109375 
Q 20.015625 56 32.328125 56 
Q 43.359375 56 49.78125 48.890625 
Q 56.203125 41.796875 56.203125 29.59375 
z
M 47.21875 32.234375 
Q 47.125 39.59375 43.09375 43.984375 
Q 39.0625 48.390625 32.421875 48.390625 
Q 24.90625 48.390625 20.390625 44.140625 
Q 15.875 39.890625 15.1875 32.171875 
z
" id="DejaVuSans-101"/>
      <path d="M 9.421875 75.984375 
L 18.40625 75.984375 
L 18.40625 0 
L 9.421875 0 
z
" id="DejaVuSans-108"/>
      <path d="M 8.5 21.578125 
L 8.5 54.6875 
L 17.484375 54.6875 
L 17.484375 21.921875 
Q 17.484375 14.15625 20.5 10.265625 
Q 23.53125 6.390625 29.59375 6.390625 
Q 36.859375 6.390625 41.078125 11.03125 
Q 45.3125 15.671875 45.3125 23.6875 
L 45.3125 54.6875 
L 54.296875 54.6875 
L 54.296875 0 
L 45.3125 0 
L 45.3125 8.40625 
Q 42.046875 3.421875 37.71875 1 
Q 33.40625 -1.421875 27.6875 -1.421875 
Q 18.265625 -1.421875 13.375 4.4375 
Q 8.5 10.296875 8.5 21.578125 
z
M 31.109375 56 
z
" id="DejaVuSans-117"/>
     </defs>
     <g transform="translate(145.559375 30.898437)scale(0.1 -0.1)">
      <use xlink:href="#DejaVuSans-114"/>
      <use x="41.082031" xlink:href="#DejaVuSans-101"/>
      <use x="102.605469" xlink:href="#DejaVuSans-108"/>
      <use x="130.388672" xlink:href="#DejaVuSans-117"/>
     </g>
    </g>
    <g id="line2d_20">
     <path d="M 117.559375 42.076562 
L 137.559375 42.076562 
" style="fill:none;stroke:#ff7f0e;stroke-linecap:square;stroke-width:1.5;"/>
    </g>
    <g id="line2d_21"/>
    <g id="text_15">
     <!-- sigmoid -->
     <defs>
      <path d="M 44.28125 53.078125 
L 44.28125 44.578125 
Q 40.484375 46.53125 36.375 47.5 
Q 32.28125 48.484375 27.875 48.484375 
Q 21.1875 48.484375 17.84375 46.4375 
Q 14.5 44.390625 14.5 40.28125 
Q 14.5 37.15625 16.890625 35.375 
Q 19.28125 33.59375 26.515625 31.984375 
L 29.59375 31.296875 
Q 39.15625 29.25 43.1875 25.515625 
Q 47.21875 21.78125 47.21875 15.09375 
Q 47.21875 7.46875 41.1875 3.015625 
Q 35.15625 -1.421875 24.609375 -1.421875 
Q 20.21875 -1.421875 15.453125 -0.5625 
Q 10.6875 0.296875 5.421875 2 
L 5.421875 11.28125 
Q 10.40625 8.6875 15.234375 7.390625 
Q 20.0625 6.109375 24.8125 6.109375 
Q 31.15625 6.109375 34.5625 8.28125 
Q 37.984375 10.453125 37.984375 14.40625 
Q 37.984375 18.0625 35.515625 20.015625 
Q 33.0625 21.96875 24.703125 23.78125 
L 21.578125 24.515625 
Q 13.234375 26.265625 9.515625 29.90625 
Q 5.8125 33.546875 5.8125 39.890625 
Q 5.8125 47.609375 11.28125 51.796875 
Q 16.75 56 26.8125 56 
Q 31.78125 56 36.171875 55.265625 
Q 40.578125 54.546875 44.28125 53.078125 
z
" id="DejaVuSans-115"/>
      <path d="M 9.421875 54.6875 
L 18.40625 54.6875 
L 18.40625 0 
L 9.421875 0 
z
M 9.421875 75.984375 
L 18.40625 75.984375 
L 18.40625 64.59375 
L 9.421875 64.59375 
z
" id="DejaVuSans-105"/>
      <path d="M 45.40625 27.984375 
Q 45.40625 37.75 41.375 43.109375 
Q 37.359375 48.484375 30.078125 48.484375 
Q 22.859375 48.484375 18.828125 43.109375 
Q 14.796875 37.75 14.796875 27.984375 
Q 14.796875 18.265625 18.828125 12.890625 
Q 22.859375 7.515625 30.078125 7.515625 
Q 37.359375 7.515625 41.375 12.890625 
Q 45.40625 18.265625 45.40625 27.984375 
z
M 54.390625 6.78125 
Q 54.390625 -7.171875 48.1875 -13.984375 
Q 42 -20.796875 29.203125 -20.796875 
Q 24.46875 -20.796875 20.265625 -20.09375 
Q 16.0625 -19.390625 12.109375 -17.921875 
L 12.109375 -9.1875 
Q 16.0625 -11.328125 19.921875 -12.34375 
Q 23.78125 -13.375 27.78125 -13.375 
Q 36.625 -13.375 41.015625 -8.765625 
Q 45.40625 -4.15625 45.40625 5.171875 
L 45.40625 9.625 
Q 42.625 4.78125 38.28125 2.390625 
Q 33.9375 0 27.875 0 
Q 17.828125 0 11.671875 7.65625 
Q 5.515625 15.328125 5.515625 27.984375 
Q 5.515625 40.671875 11.671875 48.328125 
Q 17.828125 56 27.875 56 
Q 33.9375 56 38.28125 53.609375 
Q 42.625 51.21875 45.40625 46.390625 
L 45.40625 54.6875 
L 54.390625 54.6875 
z
" id="DejaVuSans-103"/>
      <path d="M 52 44.1875 
Q 55.375 50.25 60.0625 53.125 
Q 64.75 56 71.09375 56 
Q 79.640625 56 84.28125 50.015625 
Q 88.921875 44.046875 88.921875 33.015625 
L 88.921875 0 
L 79.890625 0 
L 79.890625 32.71875 
Q 79.890625 40.578125 77.09375 44.375 
Q 74.3125 48.1875 68.609375 48.1875 
Q 61.625 48.1875 57.5625 43.546875 
Q 53.515625 38.921875 53.515625 30.90625 
L 53.515625 0 
L 44.484375 0 
L 44.484375 32.71875 
Q 44.484375 40.625 41.703125 44.40625 
Q 38.921875 48.1875 33.109375 48.1875 
Q 26.21875 48.1875 22.15625 43.53125 
Q 18.109375 38.875 18.109375 30.90625 
L 18.109375 0 
L 9.078125 0 
L 9.078125 54.6875 
L 18.109375 54.6875 
L 18.109375 46.1875 
Q 21.1875 51.21875 25.484375 53.609375 
Q 29.78125 56 35.6875 56 
Q 41.65625 56 45.828125 52.96875 
Q 50 49.953125 52 44.1875 
z
" id="DejaVuSans-109"/>
      <path d="M 30.609375 48.390625 
Q 23.390625 48.390625 19.1875 42.75 
Q 14.984375 37.109375 14.984375 27.296875 
Q 14.984375 17.484375 19.15625 11.84375 
Q 23.34375 6.203125 30.609375 6.203125 
Q 37.796875 6.203125 41.984375 11.859375 
Q 46.1875 17.53125 46.1875 27.296875 
Q 46.1875 37.015625 41.984375 42.703125 
Q 37.796875 48.390625 30.609375 48.390625 
z
M 30.609375 56 
Q 42.328125 56 49.015625 48.375 
Q 55.71875 40.765625 55.71875 27.296875 
Q 55.71875 13.875 49.015625 6.21875 
Q 42.328125 -1.421875 30.609375 -1.421875 
Q 18.84375 -1.421875 12.171875 6.21875 
Q 5.515625 13.875 5.515625 27.296875 
Q 5.515625 40.765625 12.171875 48.375 
Q 18.84375 56 30.609375 56 
z
" id="DejaVuSans-111"/>
      <path d="M 45.40625 46.390625 
L 45.40625 75.984375 
L 54.390625 75.984375 
L 54.390625 0 
L 45.40625 0 
L 45.40625 8.203125 
Q 42.578125 3.328125 38.25 0.953125 
Q 33.9375 -1.421875 27.875 -1.421875 
Q 17.96875 -1.421875 11.734375 6.484375 
Q 5.515625 14.40625 5.515625 27.296875 
Q 5.515625 40.1875 11.734375 48.09375 
Q 17.96875 56 27.875 56 
Q 33.9375 56 38.25 53.625 
Q 42.578125 51.265625 45.40625 46.390625 
z
M 14.796875 27.296875 
Q 14.796875 17.390625 18.875 11.75 
Q 22.953125 6.109375 30.078125 6.109375 
Q 37.203125 6.109375 41.296875 11.75 
Q 45.40625 17.390625 45.40625 27.296875 
Q 45.40625 37.203125 41.296875 42.84375 
Q 37.203125 48.484375 30.078125 48.484375 
Q 22.953125 48.484375 18.875 42.84375 
Q 14.796875 37.203125 14.796875 27.296875 
z
" id="DejaVuSans-100"/>
     </defs>
     <g transform="translate(145.559375 45.576562)scale(0.1 -0.1)">
      <use xlink:href="#DejaVuSans-115"/>
      <use x="52.099609" xlink:href="#DejaVuSans-105"/>
      <use x="79.882812" xlink:href="#DejaVuSans-103"/>
      <use x="143.359375" xlink:href="#DejaVuSans-109"/>
      <use x="240.771484" xlink:href="#DejaVuSans-111"/>
      <use x="301.953125" xlink:href="#DejaVuSans-105"/>
      <use x="329.736328" xlink:href="#DejaVuSans-100"/>
     </g>
    </g>
    <g id="line2d_22">
     <path d="M 117.559375 56.754687 
L 137.559375 56.754687 
" style="fill:none;stroke:#2ca02c;stroke-linecap:square;stroke-width:1.5;"/>
    </g>
    <g id="line2d_23"/>
    <g id="text_16">
     <!-- tanh -->
     <defs>
      <path d="M 18.3125 70.21875 
L 18.3125 54.6875 
L 36.8125 54.6875 
L 36.8125 47.703125 
L 18.3125 47.703125 
L 18.3125 18.015625 
Q 18.3125 11.328125 20.140625 9.421875 
Q 21.96875 7.515625 27.59375 7.515625 
L 36.8125 7.515625 
L 36.8125 0 
L 27.59375 0 
Q 17.1875 0 13.234375 3.875 
Q 9.28125 7.765625 9.28125 18.015625 
L 9.28125 47.703125 
L 2.6875 47.703125 
L 2.6875 54.6875 
L 9.28125 54.6875 
L 9.28125 70.21875 
z
" id="DejaVuSans-116"/>
      <path d="M 34.28125 27.484375 
Q 23.390625 27.484375 19.1875 25 
Q 14.984375 22.515625 14.984375 16.5 
Q 14.984375 11.71875 18.140625 8.90625 
Q 21.296875 6.109375 26.703125 6.109375 
Q 34.1875 6.109375 38.703125 11.40625 
Q 43.21875 16.703125 43.21875 25.484375 
L 43.21875 27.484375 
z
M 52.203125 31.203125 
L 52.203125 0 
L 43.21875 0 
L 43.21875 8.296875 
Q 40.140625 3.328125 35.546875 0.953125 
Q 30.953125 -1.421875 24.3125 -1.421875 
Q 15.921875 -1.421875 10.953125 3.296875 
Q 6 8.015625 6 15.921875 
Q 6 25.140625 12.171875 29.828125 
Q 18.359375 34.515625 30.609375 34.515625 
L 43.21875 34.515625 
L 43.21875 35.40625 
Q 43.21875 41.609375 39.140625 45 
Q 35.0625 48.390625 27.6875 48.390625 
Q 23 48.390625 18.546875 47.265625 
Q 14.109375 46.140625 10.015625 43.890625 
L 10.015625 52.203125 
Q 14.9375 54.109375 19.578125 55.046875 
Q 24.21875 56 28.609375 56 
Q 40.484375 56 46.34375 49.84375 
Q 52.203125 43.703125 52.203125 31.203125 
z
" id="DejaVuSans-97"/>
      <path d="M 54.890625 33.015625 
L 54.890625 0 
L 45.90625 0 
L 45.90625 32.71875 
Q 45.90625 40.484375 42.875 44.328125 
Q 39.84375 48.1875 33.796875 48.1875 
Q 26.515625 48.1875 22.3125 43.546875 
Q 18.109375 38.921875 18.109375 30.90625 
L 18.109375 0 
L 9.078125 0 
L 9.078125 54.6875 
L 18.109375 54.6875 
L 18.109375 46.1875 
Q 21.34375 51.125 25.703125 53.5625 
Q 30.078125 56 35.796875 56 
Q 45.21875 56 50.046875 50.171875 
Q 54.890625 44.34375 54.890625 33.015625 
z
" id="DejaVuSans-110"/>
      <path d="M 54.890625 33.015625 
L 54.890625 0 
L 45.90625 0 
L 45.90625 32.71875 
Q 45.90625 40.484375 42.875 44.328125 
Q 39.84375 48.1875 33.796875 48.1875 
Q 26.515625 48.1875 22.3125 43.546875 
Q 18.109375 38.921875 18.109375 30.90625 
L 18.109375 0 
L 9.078125 0 
L 9.078125 75.984375 
L 18.109375 75.984375 
L 18.109375 46.1875 
Q 21.34375 51.125 25.703125 53.5625 
Q 30.078125 56 35.796875 56 
Q 45.21875 56 50.046875 50.171875 
Q 54.890625 44.34375 54.890625 33.015625 
z
" id="DejaVuSans-104"/>
     </defs>
     <g transform="translate(145.559375 60.254687)scale(0.1 -0.1)">
      <use xlink:href="#DejaVuSans-116"/>
      <use x="39.208984" xlink:href="#DejaVuSans-97"/>
      <use x="100.488281" xlink:href="#DejaVuSans-110"/>
      <use x="163.867188" xlink:href="#DejaVuSans-104"/>
     </g>
    </g>
    <g id="line2d_24">
     <path d="M 117.559375 71.432812 
L 137.559375 71.432812 
" style="fill:none;stroke:#d62728;stroke-linecap:square;stroke-width:1.5;"/>
    </g>
    <g id="line2d_25"/>
    <g id="text_17">
     <!-- leaky_relu -->
     <defs>
      <path d="M 9.078125 75.984375 
L 18.109375 75.984375 
L 18.109375 31.109375 
L 44.921875 54.6875 
L 56.390625 54.6875 
L 27.390625 29.109375 
L 57.625 0 
L 45.90625 0 
L 18.109375 26.703125 
L 18.109375 0 
L 9.078125 0 
z
" id="DejaVuSans-107"/>
      <path d="M 32.171875 -5.078125 
Q 28.375 -14.84375 24.75 -17.8125 
Q 21.140625 -20.796875 15.09375 -20.796875 
L 7.90625 -20.796875 
L 7.90625 -13.28125 
L 13.1875 -13.28125 
Q 16.890625 -13.28125 18.9375 -11.515625 
Q 21 -9.765625 23.484375 -3.21875 
L 25.09375 0.875 
L 2.984375 54.6875 
L 12.5 54.6875 
L 29.59375 11.921875 
L 46.6875 54.6875 
L 56.203125 54.6875 
z
" id="DejaVuSans-121"/>
      <path d="M 50.984375 -16.609375 
L 50.984375 -23.578125 
L -0.984375 -23.578125 
L -0.984375 -16.609375 
z
" id="DejaVuSans-95"/>
     </defs>
     <g transform="translate(145.559375 74.932812)scale(0.1 -0.1)">
      <use xlink:href="#DejaVuSans-108"/>
      <use x="27.783203" xlink:href="#DejaVuSans-101"/>
      <use x="89.306641" xlink:href="#DejaVuSans-97"/>
      <use x="150.585938" xlink:href="#DejaVuSans-107"/>
      <use x="208.449219" xlink:href="#DejaVuSans-121"/>
      <use x="267.628906" xlink:href="#DejaVuSans-95"/>
      <use x="317.628906" xlink:href="#DejaVuSans-114"/>
      <use x="358.710938" xlink:href="#DejaVuSans-101"/>
      <use x="420.234375" xlink:href="#DejaVuSans-108"/>
      <use x="448.017578" xlink:href="#DejaVuSans-117"/>
     </g>
    </g>
   </g>
  </g>
 </g>
 <defs>
  <clipPath id="p805dd65c68">
   <rect height="273.221875" width="165.634375" x="40.065625" y="14.3"/>
  </clipPath>
 </defs>
</svg>
