<?xml version="1.0" encoding="utf-8" standalone="no"?>
<!DOCTYPE svg PUBLIC "-//W3C//DTD SVG 1.1//EN"
  "http://www.w3.org/Graphics/SVG/1.1/DTD/svg11.dtd">
<!-- Created with matplotlib (https://matplotlib.org/) -->
<svg height="320pt" version="1.1" viewBox="0 0 320 320" width="320pt" xmlns="http://www.w3.org/2000/svg" xmlns:xlink="http://www.w3.org/1999/xlink">
 <metadata>
  <rdf:RDF xmlns:cc="http://creativecommons.org/ns#" xmlns:dc="http://purl.org/dc/elements/1.1/" xmlns:rdf="http://www.w3.org/1999/02/22-rdf-syntax-ns#">
   <cc:Work>
    <dc:type rdf:resource="http://purl.org/dc/dcmitype/StillImage"/>
    <dc:date>2021-02-01T11:19:30.045249</dc:date>
    <dc:format>image/svg+xml</dc:format>
    <dc:creator>
     <cc:Agent>
      <dc:title>Matplotlib v3.3.2, https://matplotlib.org/</dc:title>
     </cc:Agent>
    </dc:creator>
   </cc:Work>
  </rdf:RDF>
 </metadata>
 <defs>
  <style type="text/css">*{stroke-linecap:butt;stroke-linejoin:round;}</style>
 </defs>
 <g id="figure_1">
  <g id="patch_1">
   <path d="M 0 320 
L 320 320 
L 320 0 
L 0 0 
z
" style="fill:#ffffff;"/>
  </g>
  <g id="axes_1">
   <g id="patch_2">
    <path d="M 46.13875 276.908125 
L 309.2 276.908125 
L 309.2 10.8 
L 46.13875 10.8 
z
" style="fill:#e5e5e5;"/>
   </g>
   <g id="matplotlib.axis_1">
    <g id="xtick_1">
     <g id="line2d_1">
      <path clip-path="url(#p4c1b394784)" d="M 47.484186 276.908125 
L 47.484186 10.8 
" style="fill:none;stroke:#ffffff;stroke-linecap:square;stroke-width:0.8;"/>
     </g>
     <g id="line2d_2">
      <defs>
       <path d="M 0 0 
L 0 3.5 
" id="m3a4152a788" style="stroke:#555555;stroke-width:0.8;"/>
      </defs>
      <g>
       <use style="fill:#555555;stroke:#555555;stroke-width:0.8;" x="47.484186" xlink:href="#m3a4152a788" y="276.908125"/>
      </g>
     </g>
     <g id="text_1">
      <!-- 1 -->
      <g style="fill:#555555;" transform="translate(44.302936 291.506562)scale(0.1 -0.1)">
       <defs>
        <path d="M 12.40625 8.296875 
L 28.515625 8.296875 
L 28.515625 63.921875 
L 10.984375 60.40625 
L 10.984375 69.390625 
L 28.421875 72.90625 
L 38.28125 72.90625 
L 38.28125 8.296875 
L 54.390625 8.296875 
L 54.390625 0 
L 12.40625 0 
z
" id="DejaVuSans-49"/>
       </defs>
       <use xlink:href="#DejaVuSans-49"/>
      </g>
     </g>
    </g>
    <g id="xtick_2">
     <g id="line2d_3">
      <path clip-path="url(#p4c1b394784)" d="M 85.383805 276.908125 
L 85.383805 10.8 
" style="fill:none;stroke:#ffffff;stroke-linecap:square;stroke-width:0.8;"/>
     </g>
     <g id="line2d_4">
      <g>
       <use style="fill:#555555;stroke:#555555;stroke-width:0.8;" x="85.383805" xlink:href="#m3a4152a788" y="276.908125"/>
      </g>
     </g>
     <g id="text_2">
      <!-- 2 -->
      <g style="fill:#555555;" transform="translate(82.202555 291.506562)scale(0.1 -0.1)">
       <defs>
        <path d="M 19.1875 8.296875 
L 53.609375 8.296875 
L 53.609375 0 
L 7.328125 0 
L 7.328125 8.296875 
Q 12.9375 14.109375 22.625 23.890625 
Q 32.328125 33.6875 34.8125 36.53125 
Q 39.546875 41.84375 41.421875 45.53125 
Q 43.3125 49.21875 43.3125 52.78125 
Q 43.3125 58.59375 39.234375 62.25 
Q 35.15625 65.921875 28.609375 65.921875 
Q 23.96875 65.921875 18.8125 64.3125 
Q 13.671875 62.703125 7.8125 59.421875 
L 7.8125 69.390625 
Q 13.765625 71.78125 18.9375 73 
Q 24.125 74.21875 28.421875 74.21875 
Q 39.75 74.21875 46.484375 68.546875 
Q 53.21875 62.890625 53.21875 53.421875 
Q 53.21875 48.921875 51.53125 44.890625 
Q 49.859375 40.875 45.40625 35.40625 
Q 44.1875 33.984375 37.640625 27.21875 
Q 31.109375 20.453125 19.1875 8.296875 
z
" id="DejaVuSans-50"/>
       </defs>
       <use xlink:href="#DejaVuSans-50"/>
      </g>
     </g>
    </g>
    <g id="xtick_3">
     <g id="line2d_5">
      <path clip-path="url(#p4c1b394784)" d="M 123.283423 276.908125 
L 123.283423 10.8 
" style="fill:none;stroke:#ffffff;stroke-linecap:square;stroke-width:0.8;"/>
     </g>
     <g id="line2d_6">
      <g>
       <use style="fill:#555555;stroke:#555555;stroke-width:0.8;" x="123.283423" xlink:href="#m3a4152a788" y="276.908125"/>
      </g>
     </g>
     <g id="text_3">
      <!-- 3 -->
      <g style="fill:#555555;" transform="translate(120.102173 291.506562)scale(0.1 -0.1)">
       <defs>
        <path d="M 40.578125 39.3125 
Q 47.65625 37.796875 51.625 33 
Q 55.609375 28.21875 55.609375 21.1875 
Q 55.609375 10.40625 48.1875 4.484375 
Q 40.765625 -1.421875 27.09375 -1.421875 
Q 22.515625 -1.421875 17.65625 -0.515625 
Q 12.796875 0.390625 7.625 2.203125 
L 7.625 11.71875 
Q 11.71875 9.328125 16.59375 8.109375 
Q 21.484375 6.890625 26.8125 6.890625 
Q 36.078125 6.890625 40.9375 10.546875 
Q 45.796875 14.203125 45.796875 21.1875 
Q 45.796875 27.640625 41.28125 31.265625 
Q 36.765625 34.90625 28.71875 34.90625 
L 20.21875 34.90625 
L 20.21875 43.015625 
L 29.109375 43.015625 
Q 36.375 43.015625 40.234375 45.921875 
Q 44.09375 48.828125 44.09375 54.296875 
Q 44.09375 59.90625 40.109375 62.90625 
Q 36.140625 65.921875 28.71875 65.921875 
Q 24.65625 65.921875 20.015625 65.03125 
Q 15.375 64.15625 9.8125 62.3125 
L 9.8125 71.09375 
Q 15.4375 72.65625 20.34375 73.4375 
Q 25.25 74.21875 29.59375 74.21875 
Q 40.828125 74.21875 47.359375 69.109375 
Q 53.90625 64.015625 53.90625 55.328125 
Q 53.90625 49.265625 50.4375 45.09375 
Q 46.96875 40.921875 40.578125 39.3125 
z
" id="DejaVuSans-51"/>
       </defs>
       <use xlink:href="#DejaVuSans-51"/>
      </g>
     </g>
    </g>
    <g id="xtick_4">
     <g id="line2d_7">
      <path clip-path="url(#p4c1b394784)" d="M 161.183041 276.908125 
L 161.183041 10.8 
" style="fill:none;stroke:#ffffff;stroke-linecap:square;stroke-width:0.8;"/>
     </g>
     <g id="line2d_8">
      <g>
       <use style="fill:#555555;stroke:#555555;stroke-width:0.8;" x="161.183041" xlink:href="#m3a4152a788" y="276.908125"/>
      </g>
     </g>
     <g id="text_4">
      <!-- 4 -->
      <g style="fill:#555555;" transform="translate(158.001791 291.506562)scale(0.1 -0.1)">
       <defs>
        <path d="M 37.796875 64.3125 
L 12.890625 25.390625 
L 37.796875 25.390625 
z
M 35.203125 72.90625 
L 47.609375 72.90625 
L 47.609375 25.390625 
L 58.015625 25.390625 
L 58.015625 17.1875 
L 47.609375 17.1875 
L 47.609375 0 
L 37.796875 0 
L 37.796875 17.1875 
L 4.890625 17.1875 
L 4.890625 26.703125 
z
" id="DejaVuSans-52"/>
       </defs>
       <use xlink:href="#DejaVuSans-52"/>
      </g>
     </g>
    </g>
    <g id="xtick_5">
     <g id="line2d_9">
      <path clip-path="url(#p4c1b394784)" d="M 199.082659 276.908125 
L 199.082659 10.8 
" style="fill:none;stroke:#ffffff;stroke-linecap:square;stroke-width:0.8;"/>
     </g>
     <g id="line2d_10">
      <g>
       <use style="fill:#555555;stroke:#555555;stroke-width:0.8;" x="199.082659" xlink:href="#m3a4152a788" y="276.908125"/>
      </g>
     </g>
     <g id="text_5">
      <!-- 5 -->
      <g style="fill:#555555;" transform="translate(195.901409 291.506562)scale(0.1 -0.1)">
       <defs>
        <path d="M 10.796875 72.90625 
L 49.515625 72.90625 
L 49.515625 64.59375 
L 19.828125 64.59375 
L 19.828125 46.734375 
Q 21.96875 47.46875 24.109375 47.828125 
Q 26.265625 48.1875 28.421875 48.1875 
Q 40.625 48.1875 47.75 41.5 
Q 54.890625 34.8125 54.890625 23.390625 
Q 54.890625 11.625 47.5625 5.09375 
Q 40.234375 -1.421875 26.90625 -1.421875 
Q 22.3125 -1.421875 17.546875 -0.640625 
Q 12.796875 0.140625 7.71875 1.703125 
L 7.71875 11.625 
Q 12.109375 9.234375 16.796875 8.0625 
Q 21.484375 6.890625 26.703125 6.890625 
Q 35.15625 6.890625 40.078125 11.328125 
Q 45.015625 15.765625 45.015625 23.390625 
Q 45.015625 31 40.078125 35.4375 
Q 35.15625 39.890625 26.703125 39.890625 
Q 22.75 39.890625 18.8125 39.015625 
Q 14.890625 38.140625 10.796875 36.28125 
z
" id="DejaVuSans-53"/>
       </defs>
       <use xlink:href="#DejaVuSans-53"/>
      </g>
     </g>
    </g>
    <g id="xtick_6">
     <g id="line2d_11">
      <path clip-path="url(#p4c1b394784)" d="M 236.982277 276.908125 
L 236.982277 10.8 
" style="fill:none;stroke:#ffffff;stroke-linecap:square;stroke-width:0.8;"/>
     </g>
     <g id="line2d_12">
      <g>
       <use style="fill:#555555;stroke:#555555;stroke-width:0.8;" x="236.982277" xlink:href="#m3a4152a788" y="276.908125"/>
      </g>
     </g>
     <g id="text_6">
      <!-- 6 -->
      <g style="fill:#555555;" transform="translate(233.801027 291.506562)scale(0.1 -0.1)">
       <defs>
        <path d="M 33.015625 40.375 
Q 26.375 40.375 22.484375 35.828125 
Q 18.609375 31.296875 18.609375 23.390625 
Q 18.609375 15.53125 22.484375 10.953125 
Q 26.375 6.390625 33.015625 6.390625 
Q 39.65625 6.390625 43.53125 10.953125 
Q 47.40625 15.53125 47.40625 23.390625 
Q 47.40625 31.296875 43.53125 35.828125 
Q 39.65625 40.375 33.015625 40.375 
z
M 52.59375 71.296875 
L 52.59375 62.3125 
Q 48.875 64.0625 45.09375 64.984375 
Q 41.3125 65.921875 37.59375 65.921875 
Q 27.828125 65.921875 22.671875 59.328125 
Q 17.53125 52.734375 16.796875 39.40625 
Q 19.671875 43.65625 24.015625 45.921875 
Q 28.375 48.1875 33.59375 48.1875 
Q 44.578125 48.1875 50.953125 41.515625 
Q 57.328125 34.859375 57.328125 23.390625 
Q 57.328125 12.15625 50.6875 5.359375 
Q 44.046875 -1.421875 33.015625 -1.421875 
Q 20.359375 -1.421875 13.671875 8.265625 
Q 6.984375 17.96875 6.984375 36.375 
Q 6.984375 53.65625 15.1875 63.9375 
Q 23.390625 74.21875 37.203125 74.21875 
Q 40.921875 74.21875 44.703125 73.484375 
Q 48.484375 72.75 52.59375 71.296875 
z
" id="DejaVuSans-54"/>
       </defs>
       <use xlink:href="#DejaVuSans-54"/>
      </g>
     </g>
    </g>
    <g id="xtick_7">
     <g id="line2d_13">
      <path clip-path="url(#p4c1b394784)" d="M 274.881896 276.908125 
L 274.881896 10.8 
" style="fill:none;stroke:#ffffff;stroke-linecap:square;stroke-width:0.8;"/>
     </g>
     <g id="line2d_14">
      <g>
       <use style="fill:#555555;stroke:#555555;stroke-width:0.8;" x="274.881896" xlink:href="#m3a4152a788" y="276.908125"/>
      </g>
     </g>
     <g id="text_7">
      <!-- 7 -->
      <g style="fill:#555555;" transform="translate(271.700646 291.506562)scale(0.1 -0.1)">
       <defs>
        <path d="M 8.203125 72.90625 
L 55.078125 72.90625 
L 55.078125 68.703125 
L 28.609375 0 
L 18.3125 0 
L 43.21875 64.59375 
L 8.203125 64.59375 
z
" id="DejaVuSans-55"/>
       </defs>
       <use xlink:href="#DejaVuSans-55"/>
      </g>
     </g>
    </g>
    <g id="text_8">
     <!-- Fertility -->
     <g style="fill:#555555;" transform="translate(155.13375 306.704375)scale(0.12 -0.12)">
      <defs>
       <path d="M 9.8125 72.90625 
L 51.703125 72.90625 
L 51.703125 64.59375 
L 19.671875 64.59375 
L 19.671875 43.109375 
L 48.578125 43.109375 
L 48.578125 34.8125 
L 19.671875 34.8125 
L 19.671875 0 
L 9.8125 0 
z
" id="DejaVuSans-70"/>
       <path d="M 56.203125 29.59375 
L 56.203125 25.203125 
L 14.890625 25.203125 
Q 15.484375 15.921875 20.484375 11.0625 
Q 25.484375 6.203125 34.421875 6.203125 
Q 39.59375 6.203125 44.453125 7.46875 
Q 49.3125 8.734375 54.109375 11.28125 
L 54.109375 2.78125 
Q 49.265625 0.734375 44.1875 -0.34375 
Q 39.109375 -1.421875 33.890625 -1.421875 
Q 20.796875 -1.421875 13.15625 6.1875 
Q 5.515625 13.8125 5.515625 26.8125 
Q 5.515625 40.234375 12.765625 48.109375 
Q 20.015625 56 32.328125 56 
Q 43.359375 56 49.78125 48.890625 
Q 56.203125 41.796875 56.203125 29.59375 
z
M 47.21875 32.234375 
Q 47.125 39.59375 43.09375 43.984375 
Q 39.0625 48.390625 32.421875 48.390625 
Q 24.90625 48.390625 20.390625 44.140625 
Q 15.875 39.890625 15.1875 32.171875 
z
" id="DejaVuSans-101"/>
       <path d="M 41.109375 46.296875 
Q 39.59375 47.171875 37.8125 47.578125 
Q 36.03125 48 33.890625 48 
Q 26.265625 48 22.1875 43.046875 
Q 18.109375 38.09375 18.109375 28.8125 
L 18.109375 0 
L 9.078125 0 
L 9.078125 54.6875 
L 18.109375 54.6875 
L 18.109375 46.1875 
Q 20.953125 51.171875 25.484375 53.578125 
Q 30.03125 56 36.53125 56 
Q 37.453125 56 38.578125 55.875 
Q 39.703125 55.765625 41.0625 55.515625 
z
" id="DejaVuSans-114"/>
       <path d="M 18.3125 70.21875 
L 18.3125 54.6875 
L 36.8125 54.6875 
L 36.8125 47.703125 
L 18.3125 47.703125 
L 18.3125 18.015625 
Q 18.3125 11.328125 20.140625 9.421875 
Q 21.96875 7.515625 27.59375 7.515625 
L 36.8125 7.515625 
L 36.8125 0 
L 27.59375 0 
Q 17.1875 0 13.234375 3.875 
Q 9.28125 7.765625 9.28125 18.015625 
L 9.28125 47.703125 
L 2.6875 47.703125 
L 2.6875 54.6875 
L 9.28125 54.6875 
L 9.28125 70.21875 
z
" id="DejaVuSans-116"/>
       <path d="M 9.421875 54.6875 
L 18.40625 54.6875 
L 18.40625 0 
L 9.421875 0 
z
M 9.421875 75.984375 
L 18.40625 75.984375 
L 18.40625 64.59375 
L 9.421875 64.59375 
z
" id="DejaVuSans-105"/>
       <path d="M 9.421875 75.984375 
L 18.40625 75.984375 
L 18.40625 0 
L 9.421875 0 
z
" id="DejaVuSans-108"/>
       <path d="M 32.171875 -5.078125 
Q 28.375 -14.84375 24.75 -17.8125 
Q 21.140625 -20.796875 15.09375 -20.796875 
L 7.90625 -20.796875 
L 7.90625 -13.28125 
L 13.1875 -13.28125 
Q 16.890625 -13.28125 18.9375 -11.515625 
Q 21 -9.765625 23.484375 -3.21875 
L 25.09375 0.875 
L 2.984375 54.6875 
L 12.5 54.6875 
L 29.59375 11.921875 
L 46.6875 54.6875 
L 56.203125 54.6875 
z
" id="DejaVuSans-121"/>
      </defs>
      <use xlink:href="#DejaVuSans-70"/>
      <use x="52.019531" xlink:href="#DejaVuSans-101"/>
      <use x="113.542969" xlink:href="#DejaVuSans-114"/>
      <use x="154.65625" xlink:href="#DejaVuSans-116"/>
      <use x="193.865234" xlink:href="#DejaVuSans-105"/>
      <use x="221.648438" xlink:href="#DejaVuSans-108"/>
      <use x="249.431641" xlink:href="#DejaVuSans-105"/>
      <use x="277.214844" xlink:href="#DejaVuSans-116"/>
      <use x="316.423828" xlink:href="#DejaVuSans-121"/>
     </g>
    </g>
   </g>
   <g id="matplotlib.axis_2">
    <g id="ytick_1">
     <g id="line2d_15">
      <path clip-path="url(#p4c1b394784)" d="M 46.13875 266.105972 
L 309.2 266.105972 
" style="fill:none;stroke:#ffffff;stroke-linecap:square;stroke-width:0.8;"/>
     </g>
     <g id="line2d_16">
      <defs>
       <path d="M 0 0 
L -3.5 0 
" id="m8fa1493714" style="stroke:#555555;stroke-width:0.8;"/>
      </defs>
      <g>
       <use style="fill:#555555;stroke:#555555;stroke-width:0.8;" x="46.13875" xlink:href="#m8fa1493714" y="266.105972"/>
      </g>
     </g>
     <g id="text_9">
      <!-- 45 -->
      <g style="fill:#555555;" transform="translate(26.41375 269.905191)scale(0.1 -0.1)">
       <use xlink:href="#DejaVuSans-52"/>
       <use x="63.623047" xlink:href="#DejaVuSans-53"/>
      </g>
     </g>
    </g>
    <g id="ytick_2">
     <g id="line2d_17">
      <path clip-path="url(#p4c1b394784)" d="M 46.13875 233.764197 
L 309.2 233.764197 
" style="fill:none;stroke:#ffffff;stroke-linecap:square;stroke-width:0.8;"/>
     </g>
     <g id="line2d_18">
      <g>
       <use style="fill:#555555;stroke:#555555;stroke-width:0.8;" x="46.13875" xlink:href="#m8fa1493714" y="233.764197"/>
      </g>
     </g>
     <g id="text_10">
      <!-- 50 -->
      <g style="fill:#555555;" transform="translate(26.41375 237.563416)scale(0.1 -0.1)">
       <defs>
        <path d="M 31.78125 66.40625 
Q 24.171875 66.40625 20.328125 58.90625 
Q 16.5 51.421875 16.5 36.375 
Q 16.5 21.390625 20.328125 13.890625 
Q 24.171875 6.390625 31.78125 6.390625 
Q 39.453125 6.390625 43.28125 13.890625 
Q 47.125 21.390625 47.125 36.375 
Q 47.125 51.421875 43.28125 58.90625 
Q 39.453125 66.40625 31.78125 66.40625 
z
M 31.78125 74.21875 
Q 44.046875 74.21875 50.515625 64.515625 
Q 56.984375 54.828125 56.984375 36.375 
Q 56.984375 17.96875 50.515625 8.265625 
Q 44.046875 -1.421875 31.78125 -1.421875 
Q 19.53125 -1.421875 13.0625 8.265625 
Q 6.59375 17.96875 6.59375 36.375 
Q 6.59375 54.828125 13.0625 64.515625 
Q 19.53125 74.21875 31.78125 74.21875 
z
" id="DejaVuSans-48"/>
       </defs>
       <use xlink:href="#DejaVuSans-53"/>
       <use x="63.623047" xlink:href="#DejaVuSans-48"/>
      </g>
     </g>
    </g>
    <g id="ytick_3">
     <g id="line2d_19">
      <path clip-path="url(#p4c1b394784)" d="M 46.13875 201.422422 
L 309.2 201.422422 
" style="fill:none;stroke:#ffffff;stroke-linecap:square;stroke-width:0.8;"/>
     </g>
     <g id="line2d_20">
      <g>
       <use style="fill:#555555;stroke:#555555;stroke-width:0.8;" x="46.13875" xlink:href="#m8fa1493714" y="201.422422"/>
      </g>
     </g>
     <g id="text_11">
      <!-- 55 -->
      <g style="fill:#555555;" transform="translate(26.41375 205.221641)scale(0.1 -0.1)">
       <use xlink:href="#DejaVuSans-53"/>
       <use x="63.623047" xlink:href="#DejaVuSans-53"/>
      </g>
     </g>
    </g>
    <g id="ytick_4">
     <g id="line2d_21">
      <path clip-path="url(#p4c1b394784)" d="M 46.13875 169.080647 
L 309.2 169.080647 
" style="fill:none;stroke:#ffffff;stroke-linecap:square;stroke-width:0.8;"/>
     </g>
     <g id="line2d_22">
      <g>
       <use style="fill:#555555;stroke:#555555;stroke-width:0.8;" x="46.13875" xlink:href="#m8fa1493714" y="169.080647"/>
      </g>
     </g>
     <g id="text_12">
      <!-- 60 -->
      <g style="fill:#555555;" transform="translate(26.41375 172.879866)scale(0.1 -0.1)">
       <use xlink:href="#DejaVuSans-54"/>
       <use x="63.623047" xlink:href="#DejaVuSans-48"/>
      </g>
     </g>
    </g>
    <g id="ytick_5">
     <g id="line2d_23">
      <path clip-path="url(#p4c1b394784)" d="M 46.13875 136.738872 
L 309.2 136.738872 
" style="fill:none;stroke:#ffffff;stroke-linecap:square;stroke-width:0.8;"/>
     </g>
     <g id="line2d_24">
      <g>
       <use style="fill:#555555;stroke:#555555;stroke-width:0.8;" x="46.13875" xlink:href="#m8fa1493714" y="136.738872"/>
      </g>
     </g>
     <g id="text_13">
      <!-- 65 -->
      <g style="fill:#555555;" transform="translate(26.41375 140.538091)scale(0.1 -0.1)">
       <use xlink:href="#DejaVuSans-54"/>
       <use x="63.623047" xlink:href="#DejaVuSans-53"/>
      </g>
     </g>
    </g>
    <g id="ytick_6">
     <g id="line2d_25">
      <path clip-path="url(#p4c1b394784)" d="M 46.13875 104.397097 
L 309.2 104.397097 
" style="fill:none;stroke:#ffffff;stroke-linecap:square;stroke-width:0.8;"/>
     </g>
     <g id="line2d_26">
      <g>
       <use style="fill:#555555;stroke:#555555;stroke-width:0.8;" x="46.13875" xlink:href="#m8fa1493714" y="104.397097"/>
      </g>
     </g>
     <g id="text_14">
      <!-- 70 -->
      <g style="fill:#555555;" transform="translate(26.41375 108.196316)scale(0.1 -0.1)">
       <use xlink:href="#DejaVuSans-55"/>
       <use x="63.623047" xlink:href="#DejaVuSans-48"/>
      </g>
     </g>
    </g>
    <g id="ytick_7">
     <g id="line2d_27">
      <path clip-path="url(#p4c1b394784)" d="M 46.13875 72.055322 
L 309.2 72.055322 
" style="fill:none;stroke:#ffffff;stroke-linecap:square;stroke-width:0.8;"/>
     </g>
     <g id="line2d_28">
      <g>
       <use style="fill:#555555;stroke:#555555;stroke-width:0.8;" x="46.13875" xlink:href="#m8fa1493714" y="72.055322"/>
      </g>
     </g>
     <g id="text_15">
      <!-- 75 -->
      <g style="fill:#555555;" transform="translate(26.41375 75.854541)scale(0.1 -0.1)">
       <use xlink:href="#DejaVuSans-55"/>
       <use x="63.623047" xlink:href="#DejaVuSans-53"/>
      </g>
     </g>
    </g>
    <g id="ytick_8">
     <g id="line2d_29">
      <path clip-path="url(#p4c1b394784)" d="M 46.13875 39.713547 
L 309.2 39.713547 
" style="fill:none;stroke:#ffffff;stroke-linecap:square;stroke-width:0.8;"/>
     </g>
     <g id="line2d_30">
      <g>
       <use style="fill:#555555;stroke:#555555;stroke-width:0.8;" x="46.13875" xlink:href="#m8fa1493714" y="39.713547"/>
      </g>
     </g>
     <g id="text_16">
      <!-- 80 -->
      <g style="fill:#555555;" transform="translate(26.41375 43.512766)scale(0.1 -0.1)">
       <defs>
        <path d="M 31.78125 34.625 
Q 24.75 34.625 20.71875 30.859375 
Q 16.703125 27.09375 16.703125 20.515625 
Q 16.703125 13.921875 20.71875 10.15625 
Q 24.75 6.390625 31.78125 6.390625 
Q 38.8125 6.390625 42.859375 10.171875 
Q 46.921875 13.96875 46.921875 20.515625 
Q 46.921875 27.09375 42.890625 30.859375 
Q 38.875 34.625 31.78125 34.625 
z
M 21.921875 38.8125 
Q 15.578125 40.375 12.03125 44.71875 
Q 8.5 49.078125 8.5 55.328125 
Q 8.5 64.0625 14.71875 69.140625 
Q 20.953125 74.21875 31.78125 74.21875 
Q 42.671875 74.21875 48.875 69.140625 
Q 55.078125 64.0625 55.078125 55.328125 
Q 55.078125 49.078125 51.53125 44.71875 
Q 48 40.375 41.703125 38.8125 
Q 48.828125 37.15625 52.796875 32.3125 
Q 56.78125 27.484375 56.78125 20.515625 
Q 56.78125 9.90625 50.3125 4.234375 
Q 43.84375 -1.421875 31.78125 -1.421875 
Q 19.734375 -1.421875 13.25 4.234375 
Q 6.78125 9.90625 6.78125 20.515625 
Q 6.78125 27.484375 10.78125 32.3125 
Q 14.796875 37.15625 21.921875 38.8125 
z
M 18.3125 54.390625 
Q 18.3125 48.734375 21.84375 45.5625 
Q 25.390625 42.390625 31.78125 42.390625 
Q 38.140625 42.390625 41.71875 45.5625 
Q 45.3125 48.734375 45.3125 54.390625 
Q 45.3125 60.0625 41.71875 63.234375 
Q 38.140625 66.40625 31.78125 66.40625 
Q 25.390625 66.40625 21.84375 63.234375 
Q 18.3125 60.0625 18.3125 54.390625 
z
" id="DejaVuSans-56"/>
       </defs>
       <use xlink:href="#DejaVuSans-56"/>
       <use x="63.623047" xlink:href="#DejaVuSans-48"/>
      </g>
     </g>
    </g>
    <g id="text_17">
     <!-- Life Expectancy -->
     <g style="fill:#555555;" transform="translate(19.918125 191.399375)rotate(-90)scale(0.12 -0.12)">
      <defs>
       <path d="M 9.8125 72.90625 
L 19.671875 72.90625 
L 19.671875 8.296875 
L 55.171875 8.296875 
L 55.171875 0 
L 9.8125 0 
z
" id="DejaVuSans-76"/>
       <path d="M 37.109375 75.984375 
L 37.109375 68.5 
L 28.515625 68.5 
Q 23.6875 68.5 21.796875 66.546875 
Q 19.921875 64.59375 19.921875 59.515625 
L 19.921875 54.6875 
L 34.71875 54.6875 
L 34.71875 47.703125 
L 19.921875 47.703125 
L 19.921875 0 
L 10.890625 0 
L 10.890625 47.703125 
L 2.296875 47.703125 
L 2.296875 54.6875 
L 10.890625 54.6875 
L 10.890625 58.5 
Q 10.890625 67.625 15.140625 71.796875 
Q 19.390625 75.984375 28.609375 75.984375 
z
" id="DejaVuSans-102"/>
       <path id="DejaVuSans-32"/>
       <path d="M 9.8125 72.90625 
L 55.90625 72.90625 
L 55.90625 64.59375 
L 19.671875 64.59375 
L 19.671875 43.015625 
L 54.390625 43.015625 
L 54.390625 34.71875 
L 19.671875 34.71875 
L 19.671875 8.296875 
L 56.78125 8.296875 
L 56.78125 0 
L 9.8125 0 
z
" id="DejaVuSans-69"/>
       <path d="M 54.890625 54.6875 
L 35.109375 28.078125 
L 55.90625 0 
L 45.3125 0 
L 29.390625 21.484375 
L 13.484375 0 
L 2.875 0 
L 24.125 28.609375 
L 4.6875 54.6875 
L 15.28125 54.6875 
L 29.78125 35.203125 
L 44.28125 54.6875 
z
" id="DejaVuSans-120"/>
       <path d="M 18.109375 8.203125 
L 18.109375 -20.796875 
L 9.078125 -20.796875 
L 9.078125 54.6875 
L 18.109375 54.6875 
L 18.109375 46.390625 
Q 20.953125 51.265625 25.265625 53.625 
Q 29.59375 56 35.59375 56 
Q 45.5625 56 51.78125 48.09375 
Q 58.015625 40.1875 58.015625 27.296875 
Q 58.015625 14.40625 51.78125 6.484375 
Q 45.5625 -1.421875 35.59375 -1.421875 
Q 29.59375 -1.421875 25.265625 0.953125 
Q 20.953125 3.328125 18.109375 8.203125 
z
M 48.6875 27.296875 
Q 48.6875 37.203125 44.609375 42.84375 
Q 40.53125 48.484375 33.40625 48.484375 
Q 26.265625 48.484375 22.1875 42.84375 
Q 18.109375 37.203125 18.109375 27.296875 
Q 18.109375 17.390625 22.1875 11.75 
Q 26.265625 6.109375 33.40625 6.109375 
Q 40.53125 6.109375 44.609375 11.75 
Q 48.6875 17.390625 48.6875 27.296875 
z
" id="DejaVuSans-112"/>
       <path d="M 48.78125 52.59375 
L 48.78125 44.1875 
Q 44.96875 46.296875 41.140625 47.34375 
Q 37.3125 48.390625 33.40625 48.390625 
Q 24.65625 48.390625 19.8125 42.84375 
Q 14.984375 37.3125 14.984375 27.296875 
Q 14.984375 17.28125 19.8125 11.734375 
Q 24.65625 6.203125 33.40625 6.203125 
Q 37.3125 6.203125 41.140625 7.25 
Q 44.96875 8.296875 48.78125 10.40625 
L 48.78125 2.09375 
Q 45.015625 0.34375 40.984375 -0.53125 
Q 36.96875 -1.421875 32.421875 -1.421875 
Q 20.0625 -1.421875 12.78125 6.34375 
Q 5.515625 14.109375 5.515625 27.296875 
Q 5.515625 40.671875 12.859375 48.328125 
Q 20.21875 56 33.015625 56 
Q 37.15625 56 41.109375 55.140625 
Q 45.0625 54.296875 48.78125 52.59375 
z
" id="DejaVuSans-99"/>
       <path d="M 34.28125 27.484375 
Q 23.390625 27.484375 19.1875 25 
Q 14.984375 22.515625 14.984375 16.5 
Q 14.984375 11.71875 18.140625 8.90625 
Q 21.296875 6.109375 26.703125 6.109375 
Q 34.1875 6.109375 38.703125 11.40625 
Q 43.21875 16.703125 43.21875 25.484375 
L 43.21875 27.484375 
z
M 52.203125 31.203125 
L 52.203125 0 
L 43.21875 0 
L 43.21875 8.296875 
Q 40.140625 3.328125 35.546875 0.953125 
Q 30.953125 -1.421875 24.3125 -1.421875 
Q 15.921875 -1.421875 10.953125 3.296875 
Q 6 8.015625 6 15.921875 
Q 6 25.140625 12.171875 29.828125 
Q 18.359375 34.515625 30.609375 34.515625 
L 43.21875 34.515625 
L 43.21875 35.40625 
Q 43.21875 41.609375 39.140625 45 
Q 35.0625 48.390625 27.6875 48.390625 
Q 23 48.390625 18.546875 47.265625 
Q 14.109375 46.140625 10.015625 43.890625 
L 10.015625 52.203125 
Q 14.9375 54.109375 19.578125 55.046875 
Q 24.21875 56 28.609375 56 
Q 40.484375 56 46.34375 49.84375 
Q 52.203125 43.703125 52.203125 31.203125 
z
" id="DejaVuSans-97"/>
       <path d="M 54.890625 33.015625 
L 54.890625 0 
L 45.90625 0 
L 45.90625 32.71875 
Q 45.90625 40.484375 42.875 44.328125 
Q 39.84375 48.1875 33.796875 48.1875 
Q 26.515625 48.1875 22.3125 43.546875 
Q 18.109375 38.921875 18.109375 30.90625 
L 18.109375 0 
L 9.078125 0 
L 9.078125 54.6875 
L 18.109375 54.6875 
L 18.109375 46.1875 
Q 21.34375 51.125 25.703125 53.5625 
Q 30.078125 56 35.796875 56 
Q 45.21875 56 50.046875 50.171875 
Q 54.890625 44.34375 54.890625 33.015625 
z
" id="DejaVuSans-110"/>
      </defs>
      <use xlink:href="#DejaVuSans-76"/>
      <use x="55.712891" xlink:href="#DejaVuSans-105"/>
      <use x="83.496094" xlink:href="#DejaVuSans-102"/>
      <use x="118.701172" xlink:href="#DejaVuSans-101"/>
      <use x="180.224609" xlink:href="#DejaVuSans-32"/>
      <use x="212.011719" xlink:href="#DejaVuSans-69"/>
      <use x="275.195312" xlink:href="#DejaVuSans-120"/>
      <use x="334.375" xlink:href="#DejaVuSans-112"/>
      <use x="397.851562" xlink:href="#DejaVuSans-101"/>
      <use x="459.375" xlink:href="#DejaVuSans-99"/>
      <use x="514.355469" xlink:href="#DejaVuSans-116"/>
      <use x="553.564453" xlink:href="#DejaVuSans-97"/>
      <use x="614.84375" xlink:href="#DejaVuSans-110"/>
      <use x="678.222656" xlink:href="#DejaVuSans-99"/>
      <use x="733.203125" xlink:href="#DejaVuSans-121"/>
     </g>
    </g>
   </g>
   <g id="PathCollection_1">
    <defs>
     <path d="M 0 3 
C 0.795609 3 1.55874 2.683901 2.12132 2.12132 
C 2.683901 1.55874 3 0.795609 3 0 
C 3 -0.795609 2.683901 -1.55874 2.12132 -2.12132 
C 1.55874 -2.683901 0.795609 -3 0 -3 
C -0.795609 -3 -1.55874 -2.683901 -2.12132 -2.12132 
C -2.683901 -1.55874 -3 -0.795609 -3 0 
C -3 0.795609 -2.683901 1.55874 -2.12132 2.12132 
C -1.55874 2.683901 -0.795609 3 0 3 
z
" id="m57b503a0cf" style="stroke:#0000ff;stroke-width:0.5;"/>
    </defs>
    <g clip-path="url(#p4c1b394784)">
     <use style="fill:#0000ff;stroke:#0000ff;stroke-width:0.5;" x="113.050526" xlink:href="#m57b503a0cf" y="70.114815"/>
     <use style="fill:#0000ff;stroke:#0000ff;stroke-width:0.5;" x="253.279113" xlink:href="#m57b503a0cf" y="180.076851"/>
     <use style="fill:#0000ff;stroke:#0000ff;stroke-width:0.5;" x="94.479713" xlink:href="#m57b503a0cf" y="68.821144"/>
     <use style="fill:#0000ff;stroke:#0000ff;stroke-width:0.5;" x="62.644034" xlink:href="#m57b503a0cf" y="88.226209"/>
     <use style="fill:#0000ff;stroke:#0000ff;stroke-width:0.5;" x="83.86782" xlink:href="#m57b503a0cf" y="30.011014"/>
     <use style="fill:#0000ff;stroke:#0000ff;stroke-width:0.5;" x="63.02303" xlink:href="#m57b503a0cf" y="37.126205"/>
     <use style="fill:#0000ff;stroke:#0000ff;stroke-width:0.5;" x="85.004808" xlink:href="#m57b503a0cf" y="100.516084"/>
     <use style="fill:#0000ff;stroke:#0000ff;stroke-width:0.5;" x="81.214847" xlink:href="#m57b503a0cf" y="90.166716"/>
     <use style="fill:#0000ff;stroke:#0000ff;stroke-width:0.5;" x="99.78566" xlink:href="#m57b503a0cf" y="114.746465"/>
     <use style="fill:#0000ff;stroke:#0000ff;stroke-width:0.5;" x="78.94087" xlink:href="#m57b503a0cf" y="70.114815"/>
     <use style="fill:#0000ff;stroke:#0000ff;stroke-width:0.5;" x="63.402026" xlink:href="#m57b503a0cf" y="103.750261"/>
     <use style="fill:#0000ff;stroke:#0000ff;stroke-width:0.5;" x="78.561873" xlink:href="#m57b503a0cf" y="43.59456"/>
     <use style="fill:#0000ff;stroke:#0000ff;stroke-width:0.5;" x="119.872457" xlink:href="#m57b503a0cf" y="99.869248"/>
     <use style="fill:#0000ff;stroke:#0000ff;stroke-width:0.5;" x="209.315556" xlink:href="#m57b503a0cf" y="148.381911"/>
     <use style="fill:#0000ff;stroke:#0000ff;stroke-width:0.5;" x="104.71261" xlink:href="#m57b503a0cf" y="119.921149"/>
     <use style="fill:#0000ff;stroke:#0000ff;stroke-width:0.5;" x="141.47524" xlink:href="#m57b503a0cf" y="98.575577"/>
     <use style="fill:#0000ff;stroke:#0000ff;stroke-width:0.5;" x="117.977476" xlink:href="#m57b503a0cf" y="161.318621"/>
     <use style="fill:#0000ff;stroke:#0000ff;stroke-width:0.5;" x="81.593843" xlink:href="#m57b503a0cf" y="79.170512"/>
     <use style="fill:#0000ff;stroke:#0000ff;stroke-width:0.5;" x="63.781022" xlink:href="#m57b503a0cf" y="83.698361"/>
     <use style="fill:#0000ff;stroke:#0000ff;stroke-width:0.5;" x="238.498262" xlink:href="#m57b503a0cf" y="172.96166"/>
     <use style="fill:#0000ff;stroke:#0000ff;stroke-width:0.5;" x="255.174094" xlink:href="#m57b503a0cf" y="185.89837"/>
     <use style="fill:#0000ff;stroke:#0000ff;stroke-width:0.5;" x="125.178404" xlink:href="#m57b503a0cf" y="128.976846"/>
     <use style="fill:#0000ff;stroke:#0000ff;stroke-width:0.5;" x="205.525594" xlink:href="#m57b503a0cf" y="191.073054"/>
     <use style="fill:#0000ff;stroke:#0000ff;stroke-width:0.5;" x="73.255927" xlink:href="#m57b503a0cf" y="35.185698"/>
     <use style="fill:#0000ff;stroke:#0000ff;stroke-width:0.5;" x="267.680968" xlink:href="#m57b503a0cf" y="202.716093"/>
     <use style="fill:#0000ff;stroke:#0000ff;stroke-width:0.5;" x="81.214847" xlink:href="#m57b503a0cf" y="46.828737"/>
     <use style="fill:#0000ff;stroke:#0000ff;stroke-width:0.5;" x="101.68064" xlink:href="#m57b503a0cf" y="71.408486"/>
     <use style="fill:#0000ff;stroke:#0000ff;stroke-width:0.5;" x="200.97764" xlink:href="#m57b503a0cf" y="152.262924"/>
     <use style="fill:#0000ff;stroke:#0000ff;stroke-width:0.5;" x="202.872621" xlink:href="#m57b503a0cf" y="178.136344"/>
     <use style="fill:#0000ff;stroke:#0000ff;stroke-width:0.5;" x="81.972839" xlink:href="#m57b503a0cf" y="41.654053"/>
     <use style="fill:#0000ff;stroke:#0000ff;stroke-width:0.5;" x="195.671694" xlink:href="#m57b503a0cf" y="195.600903"/>
     <use style="fill:#0000ff;stroke:#0000ff;stroke-width:0.5;" x="63.781022" xlink:href="#m57b503a0cf" y="62.352789"/>
     <use style="fill:#0000ff;stroke:#0000ff;stroke-width:0.5;" x="66.433996" xlink:href="#m57b503a0cf" y="53.943928"/>
     <use style="fill:#0000ff;stroke:#0000ff;stroke-width:0.5;" x="81.214847" xlink:href="#m57b503a0cf" y="48.122408"/>
     <use style="fill:#0000ff;stroke:#0000ff;stroke-width:0.5;" x="152.087133" xlink:href="#m57b503a0cf" y="162.612292"/>
     <use style="fill:#0000ff;stroke:#0000ff;stroke-width:0.5;" x="113.050526" xlink:href="#m57b503a0cf" y="78.523677"/>
     <use style="fill:#0000ff;stroke:#0000ff;stroke-width:0.5;" x="121.388442" xlink:href="#m57b503a0cf" y="103.750261"/>
     <use style="fill:#0000ff;stroke:#0000ff;stroke-width:0.5;" x="97.511682" xlink:href="#m57b503a0cf" y="77.876841"/>
     <use style="fill:#0000ff;stroke:#0000ff;stroke-width:0.5;" x="210.831541" xlink:href="#m57b503a0cf" y="190.426219"/>
     <use style="fill:#0000ff;stroke:#0000ff;stroke-width:0.5;" x="205.146598" xlink:href="#m57b503a0cf" y="166.493305"/>
     <use style="fill:#0000ff;stroke:#0000ff;stroke-width:0.5;" x="70.98195" xlink:href="#m57b503a0cf" y="78.523677"/>
     <use style="fill:#0000ff;stroke:#0000ff;stroke-width:0.5;" x="113.429522" xlink:href="#m57b503a0cf" y="132.211023"/>
     <use style="fill:#0000ff;stroke:#0000ff;stroke-width:0.5;" x="79.698862" xlink:href="#m57b503a0cf" y="43.59456"/>
     <use style="fill:#0000ff;stroke:#0000ff;stroke-width:0.5;" x="84.246816" xlink:href="#m57b503a0cf" y="33.245192"/>
     <use style="fill:#0000ff;stroke:#0000ff;stroke-width:0.5;" x="171.794934" xlink:href="#m57b503a0cf" y="185.251535"/>
     <use style="fill:#0000ff;stroke:#0000ff;stroke-width:0.5;" x="229.402354" xlink:href="#m57b503a0cf" y="154.850266"/>
     <use style="fill:#0000ff;stroke:#0000ff;stroke-width:0.5;" x="77.424885" xlink:href="#m57b503a0cf" y="90.813551"/>
     <use style="fill:#0000ff;stroke:#0000ff;stroke-width:0.5;" x="61.507045" xlink:href="#m57b503a0cf" y="39.713547"/>
     <use style="fill:#0000ff;stroke:#0000ff;stroke-width:0.5;" x="168.383969" xlink:href="#m57b503a0cf" y="151.616089"/>
     <use style="fill:#0000ff;stroke:#0000ff;stroke-width:0.5;" x="64.918011" xlink:href="#m57b503a0cf" y="42.947724"/>
     <use style="fill:#0000ff;stroke:#0000ff;stroke-width:0.5;" x="165.730995" xlink:href="#m57b503a0cf" y="99.222413"/>
     <use style="fill:#0000ff;stroke:#0000ff;stroke-width:0.5;" x="211.968529" xlink:href="#m57b503a0cf" y="180.076851"/>
     <use style="fill:#0000ff;stroke:#0000ff;stroke-width:0.5;" x="208.557564" xlink:href="#m57b503a0cf" y="225.355336"/>
     <use style="fill:#0000ff;stroke:#0000ff;stroke-width:0.5;" x="113.429522" xlink:href="#m57b503a0cf" y="149.675582"/>
     <use style="fill:#0000ff;stroke:#0000ff;stroke-width:0.5;" x="142.233232" xlink:href="#m57b503a0cf" y="158.084444"/>
     <use style="fill:#0000ff;stroke:#0000ff;stroke-width:0.5;" x="133.51632" xlink:href="#m57b503a0cf" y="98.575577"/>
     <use style="fill:#0000ff;stroke:#0000ff;stroke-width:0.5;" x="59.99106" xlink:href="#m57b503a0cf" y="79.817348"/>
     <use style="fill:#0000ff;stroke:#0000ff;stroke-width:0.5;" x="89.931759" xlink:href="#m57b503a0cf" y="26.776837"/>
     <use style="fill:#0000ff;stroke:#0000ff;stroke-width:0.5;" x="109.63956" xlink:href="#m57b503a0cf" y="140.619885"/>
     <use style="fill:#0000ff;stroke:#0000ff;stroke-width:0.5;" x="103.575621" xlink:href="#m57b503a0cf" y="107.631274"/>
     <use style="fill:#0000ff;stroke:#0000ff;stroke-width:0.5;" x="80.83585" xlink:href="#m57b503a0cf" y="59.765447"/>
     <use style="fill:#0000ff;stroke:#0000ff;stroke-width:0.5;" x="85.383805" xlink:href="#m57b503a0cf" y="43.59456"/>
     <use style="fill:#0000ff;stroke:#0000ff;stroke-width:0.5;" x="120.251453" xlink:href="#m57b503a0cf" y="33.892027"/>
     <use style="fill:#0000ff;stroke:#0000ff;stroke-width:0.5;" x="62.265038" xlink:href="#m57b503a0cf" y="30.65785"/>
     <use style="fill:#0000ff;stroke:#0000ff;stroke-width:0.5;" x="100.164656" xlink:href="#m57b503a0cf" y="68.821144"/>
     <use style="fill:#0000ff;stroke:#0000ff;stroke-width:0.5;" x="60.370057" xlink:href="#m57b503a0cf" y="22.895824"/>
     <use style="fill:#0000ff;stroke:#0000ff;stroke-width:0.5;" x="104.71261" xlink:href="#m57b503a0cf" y="129.623681"/>
     <use style="fill:#0000ff;stroke:#0000ff;stroke-width:0.5;" x="189.986751" xlink:href="#m57b503a0cf" y="159.378115"/>
     <use style="fill:#0000ff;stroke:#0000ff;stroke-width:0.5;" x="66.433996" xlink:href="#m57b503a0cf" y="89.51988"/>
     <use style="fill:#0000ff;stroke:#0000ff;stroke-width:0.5;" x="69.086969" xlink:href="#m57b503a0cf" y="55.237599"/>
     <use style="fill:#0000ff;stroke:#0000ff;stroke-width:0.5;" x="136.169293" xlink:href="#m57b503a0cf" y="264.812301"/>
     <use style="fill:#0000ff;stroke:#0000ff;stroke-width:0.5;" x="206.283587" xlink:href="#m57b503a0cf" y="162.612292"/>
     <use style="fill:#0000ff;stroke:#0000ff;stroke-width:0.5;" x="63.402026" xlink:href="#m57b503a0cf" y="91.460387"/>
     <use style="fill:#0000ff;stroke:#0000ff;stroke-width:0.5;" x="71.360946" xlink:href="#m57b503a0cf" y="35.185698"/>
     <use style="fill:#0000ff;stroke:#0000ff;stroke-width:0.5;" x="191.123739" xlink:href="#m57b503a0cf" y="147.08824"/>
     <use style="fill:#0000ff;stroke:#0000ff;stroke-width:0.5;" x="228.644361" xlink:href="#m57b503a0cf" y="224.7085"/>
     <use style="fill:#0000ff;stroke:#0000ff;stroke-width:0.5;" x="87.278786" xlink:href="#m57b503a0cf" y="75.289499"/>
     <use style="fill:#0000ff;stroke:#0000ff;stroke-width:0.5;" x="99.78566" xlink:href="#m57b503a0cf" y="51.356586"/>
     <use style="fill:#0000ff;stroke:#0000ff;stroke-width:0.5;" x="268.059964" xlink:href="#m57b503a0cf" y="196.247738"/>
     <use style="fill:#0000ff;stroke:#0000ff;stroke-width:0.5;" x="61.886041" xlink:href="#m57b503a0cf" y="30.65785"/>
     <use style="fill:#0000ff;stroke:#0000ff;stroke-width:0.5;" x="196.808682" xlink:href="#m57b503a0cf" y="145.794569"/>
     <use style="fill:#0000ff;stroke:#0000ff;stroke-width:0.5;" x="69.465965" xlink:href="#m57b503a0cf" y="90.813551"/>
     <use style="fill:#0000ff;stroke:#0000ff;stroke-width:0.5;" x="98.648671" xlink:href="#m57b503a0cf" y="67.527473"/>
     <use style="fill:#0000ff;stroke:#0000ff;stroke-width:0.5;" x="66.054999" xlink:href="#m57b503a0cf" y="106.984439"/>
     <use style="fill:#0000ff;stroke:#0000ff;stroke-width:0.5;" x="99.406663" xlink:href="#m57b503a0cf" y="148.381911"/>
     <use style="fill:#0000ff;stroke:#0000ff;stroke-width:0.5;" x="102.059637" xlink:href="#m57b503a0cf" y="83.051525"/>
     <use style="fill:#0000ff;stroke:#0000ff;stroke-width:0.5;" x="219.548453" xlink:href="#m57b503a0cf" y="201.422422"/>
     <use style="fill:#0000ff;stroke:#0000ff;stroke-width:0.5;" x="87.278786" xlink:href="#m57b503a0cf" y="163.905963"/>
     <use style="fill:#0000ff;stroke:#0000ff;stroke-width:0.5;" x="119.493461" xlink:href="#m57b503a0cf" y="113.452794"/>
     <use style="fill:#0000ff;stroke:#0000ff;stroke-width:0.5;" x="76.666892" xlink:href="#m57b503a0cf" y="37.77304"/>
     <use style="fill:#0000ff;stroke:#0000ff;stroke-width:0.5;" x="89.931759" xlink:href="#m57b503a0cf" y="38.419876"/>
     <use style="fill:#0000ff;stroke:#0000ff;stroke-width:0.5;" x="112.67153" xlink:href="#m57b503a0cf" y="70.761651"/>
     <use style="fill:#0000ff;stroke:#0000ff;stroke-width:0.5;" x="297.24267" xlink:href="#m57b503a0cf" y="171.021154"/>
     <use style="fill:#0000ff;stroke:#0000ff;stroke-width:0.5;" x="237.74027" xlink:href="#m57b503a0cf" y="182.017357"/>
     <use style="fill:#0000ff;stroke:#0000ff;stroke-width:0.5;" x="83.86782" xlink:href="#m57b503a0cf" y="35.185698"/>
     <use style="fill:#0000ff;stroke:#0000ff;stroke-width:0.5;" x="119.114465" xlink:href="#m57b503a0cf" y="74.642664"/>
     <use style="fill:#0000ff;stroke:#0000ff;stroke-width:0.5;" x="145.265201" xlink:href="#m57b503a0cf" y="142.560391"/>
     <use style="fill:#0000ff;stroke:#0000ff;stroke-width:0.5;" x="108.502572" xlink:href="#m57b503a0cf" y="58.471776"/>
     <use style="fill:#0000ff;stroke:#0000ff;stroke-width:0.5;" x="163.836014" xlink:href="#m57b503a0cf" y="180.723686"/>
     <use style="fill:#0000ff;stroke:#0000ff;stroke-width:0.5;" x="125.5574" xlink:href="#m57b503a0cf" y="81.111019"/>
     <use style="fill:#0000ff;stroke:#0000ff;stroke-width:0.5;" x="107.365583" xlink:href="#m57b503a0cf" y="60.412283"/>
     <use style="fill:#0000ff;stroke:#0000ff;stroke-width:0.5;" x="133.137324" xlink:href="#m57b503a0cf" y="108.27811"/>
     <use style="fill:#0000ff;stroke:#0000ff;stroke-width:0.5;" x="59.99106" xlink:href="#m57b503a0cf" y="70.114815"/>
     <use style="fill:#0000ff;stroke:#0000ff;stroke-width:0.5;" x="61.128049" xlink:href="#m57b503a0cf" y="44.888231"/>
     <use style="fill:#0000ff;stroke:#0000ff;stroke-width:0.5;" x="92.963728" xlink:href="#m57b503a0cf" y="37.126205"/>
     <use style="fill:#0000ff;stroke:#0000ff;stroke-width:0.5;" x="60.370057" xlink:href="#m57b503a0cf" y="82.40469"/>
     <use style="fill:#0000ff;stroke:#0000ff;stroke-width:0.5;" x="66.054999" xlink:href="#m57b503a0cf" y="119.921149"/>
     <use style="fill:#0000ff;stroke:#0000ff;stroke-width:0.5;" x="201.356636" xlink:href="#m57b503a0cf" y="154.850266"/>
     <use style="fill:#0000ff;stroke:#0000ff;stroke-width:0.5;" x="203.251617" xlink:href="#m57b503a0cf" y="141.26672"/>
     <use style="fill:#0000ff;stroke:#0000ff;stroke-width:0.5;" x="63.02303" xlink:href="#m57b503a0cf" y="62.999625"/>
     <use style="fill:#0000ff;stroke:#0000ff;stroke-width:0.5;" x="204.00961" xlink:href="#m57b503a0cf" y="195.600903"/>
     <use style="fill:#0000ff;stroke:#0000ff;stroke-width:0.5;" x="58.09608" xlink:href="#m57b503a0cf" y="33.892027"/>
     <use style="fill:#0000ff;stroke:#0000ff;stroke-width:0.5;" x="59.233068" xlink:href="#m57b503a0cf" y="73.348993"/>
     <use style="fill:#0000ff;stroke:#0000ff;stroke-width:0.5;" x="63.781022" xlink:href="#m57b503a0cf" y="49.416079"/>
     <use style="fill:#0000ff;stroke:#0000ff;stroke-width:0.5;" x="277.155873" xlink:href="#m57b503a0cf" y="190.426219"/>
     <use style="fill:#0000ff;stroke:#0000ff;stroke-width:0.5;" x="105.849598" xlink:href="#m57b503a0cf" y="201.422422"/>
     <use style="fill:#0000ff;stroke:#0000ff;stroke-width:0.5;" x="63.402026" xlink:href="#m57b503a0cf" y="32.598356"/>
     <use style="fill:#0000ff;stroke:#0000ff;stroke-width:0.5;" x="97.511682" xlink:href="#m57b503a0cf" y="76.58317"/>
     <use style="fill:#0000ff;stroke:#0000ff;stroke-width:0.5;" x="191.123739" xlink:href="#m57b503a0cf" y="121.21482"/>
     <use style="fill:#0000ff;stroke:#0000ff;stroke-width:0.5;" x="100.922648" xlink:href="#m57b503a0cf" y="110.218616"/>
     <use style="fill:#0000ff;stroke:#0000ff;stroke-width:0.5;" x="149.813156" xlink:href="#m57b503a0cf" y="258.990782"/>
     <use style="fill:#0000ff;stroke:#0000ff;stroke-width:0.5;" x="82.351835" xlink:href="#m57b503a0cf" y="32.598356"/>
     <use style="fill:#0000ff;stroke:#0000ff;stroke-width:0.5;" x="65.297007" xlink:href="#m57b503a0cf" y="27.423672"/>
     <use style="fill:#0000ff;stroke:#0000ff;stroke-width:0.5;" x="149.813156" xlink:href="#m57b503a0cf" y="107.631274"/>
     <use style="fill:#0000ff;stroke:#0000ff;stroke-width:0.5;" x="219.548453" xlink:href="#m57b503a0cf" y="171.021154"/>
     <use style="fill:#0000ff;stroke:#0000ff;stroke-width:0.5;" x="65.676003" xlink:href="#m57b503a0cf" y="77.876841"/>
     <use style="fill:#0000ff;stroke:#0000ff;stroke-width:0.5;" x="194.534705" xlink:href="#m57b503a0cf" y="169.080647"/>
     <use style="fill:#0000ff;stroke:#0000ff;stroke-width:0.5;" x="77.803881" xlink:href="#m57b503a0cf" y="95.988235"/>
     <use style="fill:#0000ff;stroke:#0000ff;stroke-width:0.5;" x="86.899789" xlink:href="#m57b503a0cf" y="62.352789"/>
     <use style="fill:#0000ff;stroke:#0000ff;stroke-width:0.5;" x="91.068747" xlink:href="#m57b503a0cf" y="71.408486"/>
     <use style="fill:#0000ff;stroke:#0000ff;stroke-width:0.5;" x="249.868148" xlink:href="#m57b503a0cf" y="187.192041"/>
     <use style="fill:#0000ff;stroke:#0000ff;stroke-width:0.5;" x="61.886041" xlink:href="#m57b503a0cf" y="116.040136"/>
     <use style="fill:#0000ff;stroke:#0000ff;stroke-width:0.5;" x="80.456854" xlink:href="#m57b503a0cf" y="42.947724"/>
     <use style="fill:#0000ff;stroke:#0000ff;stroke-width:0.5;" x="88.036778" xlink:href="#m57b503a0cf" y="51.356586"/>
     <use style="fill:#0000ff;stroke:#0000ff;stroke-width:0.5;" x="89.552763" xlink:href="#m57b503a0cf" y="65.586967"/>
     <use style="fill:#0000ff;stroke:#0000ff;stroke-width:0.5;" x="102.817629" xlink:href="#m57b503a0cf" y="112.805958"/>
     <use style="fill:#0000ff;stroke:#0000ff;stroke-width:0.5;" x="80.077858" xlink:href="#m57b503a0cf" y="69.46798"/>
     <use style="fill:#0000ff;stroke:#0000ff;stroke-width:0.5;" x="232.434323" xlink:href="#m57b503a0cf" y="220.827487"/>
     <use style="fill:#0000ff;stroke:#0000ff;stroke-width:0.5;" x="155.498098" xlink:href="#m57b503a0cf" y="240.232552"/>
    </g>
   </g>
   <g id="patch_3">
    <path d="M 46.13875 276.908125 
L 46.13875 10.8 
" style="fill:none;stroke:#ffffff;stroke-linecap:square;stroke-linejoin:miter;"/>
   </g>
   <g id="patch_4">
    <path d="M 309.2 276.908125 
L 309.2 10.8 
" style="fill:none;stroke:#ffffff;stroke-linecap:square;stroke-linejoin:miter;"/>
   </g>
   <g id="patch_5">
    <path d="M 46.13875 276.908125 
L 309.2 276.908125 
" style="fill:none;stroke:#ffffff;stroke-linecap:square;stroke-linejoin:miter;"/>
   </g>
   <g id="patch_6">
    <path d="M 46.13875 10.8 
L 309.2 10.8 
" style="fill:none;stroke:#ffffff;stroke-linecap:square;stroke-linejoin:miter;"/>
   </g>
  </g>
 </g>
 <defs>
  <clipPath id="p4c1b394784">
   <rect height="266.108125" width="263.06125" x="46.13875" y="10.8"/>
  </clipPath>
 </defs>
</svg>
